<svg width="44" height="18" viewBox="0 0 44 18" fill="none" xmlns="http://www.w3.org/2000/svg">
<g clip-path="url(#clip0_68_7924)">
<path d="M7.98067 2.3121C7.46882 2.91779 6.64969 3.39569 5.83065 3.32736C5.72828 2.5084 6.12923 1.63809 6.59851 1.10056C7.11036 0.47781 8.00626 0.0341232 8.73147 0C8.81678 0.853166 8.48399 1.68927 7.98067 2.3121ZM8.72302 3.48953C7.53707 3.42128 6.52182 4.16346 5.9587 4.16346C5.38714 4.16346 4.52535 3.52365 3.58688 3.54071C2.36689 3.55777 1.23212 4.24877 0.609287 5.34941C-0.670505 7.55062 0.276585 10.8098 1.51364 12.6014C2.11941 13.4887 2.84461 14.4613 3.80015 14.4272C4.70459 14.3931 5.06288 13.8386 6.15499 13.8386C7.25555 13.8386 7.57128 14.4272 8.52681 14.4102C9.51647 14.3931 10.1393 13.5229 10.7451 12.6356C11.4361 11.6289 11.7177 10.6476 11.7347 10.5965C11.7177 10.5794 9.82367 9.85428 9.80661 7.67005C9.78954 5.84429 11.2997 4.97406 11.3679 4.92287C10.5147 3.66014 9.18377 3.52365 8.72302 3.48953ZM15.5741 1.01525V14.3164H17.6387V9.76897H20.4969C23.1076 9.76897 24.942 7.97733 24.942 5.38362C24.942 2.79 23.1417 1.01534 20.5651 1.01534L15.5741 1.01525ZM17.6387 2.75579H20.0191C21.8108 2.75579 22.8346 3.71133 22.8346 5.39207C22.8346 7.07281 21.8108 8.03696 20.0106 8.03696H17.6387V2.75579ZM28.7129 14.4187C30.0098 14.4187 31.2127 13.7618 31.7588 12.7209H31.8014V14.3163H33.7126V7.69564C33.7126 5.77604 32.1769 4.5389 29.8135 4.5389C27.6208 4.5389 25.9998 5.7931 25.9401 7.51649H27.8C27.9536 6.69745 28.7128 6.15992 29.7538 6.15992C31.0165 6.15992 31.7246 6.74864 31.7246 7.83222V8.56587L29.148 8.71942C26.7506 8.86445 25.4538 9.84566 25.4538 11.5521C25.4538 13.2755 26.7932 14.4187 28.7129 14.4187ZM29.2674 12.8403C28.1669 12.8403 27.4673 12.3114 27.4673 11.5008C27.4673 10.6648 28.1413 10.1784 29.4296 10.1017L31.7246 9.95665V10.7074C31.7246 11.953 30.6667 12.8403 29.2675 12.8403M36.2636 17.9338C38.2771 17.9338 39.2242 17.166 40.0517 14.8368L43.6777 4.66686H41.5788L39.1473 12.5246H39.1046L36.6731 4.66686H34.5145L38.0125 14.3504L37.8248 14.9391C37.5092 15.9373 36.9973 16.3213 36.0844 16.3213C35.9223 16.3213 35.6067 16.3042 35.4786 16.2872V17.8826C35.598 17.9167 36.1099 17.9338 36.2635 17.9338" fill="black"/>
</g>
<defs>
<clipPath id="clip0_68_7924">
<rect width="43.6777" height="18" fill="white"/>
</clipPath>
</defs>
</svg>
