<svg width="24" height="25" viewBox="0 0 24 25" fill="none" xmlns="http://www.w3.org/2000/svg">
<path d="M8.75718 13.8874C8.75718 13.6813 8.67532 13.4837 8.52959 13.3379C8.38387 13.1922 8.18623 13.1104 7.98015 13.1104C7.77407 13.1104 7.57643 13.1922 7.43071 13.3379C7.28499 13.4837 7.20313 13.6813 7.20312 13.8874V18.0315C7.20313 18.2376 7.28499 18.4353 7.43071 18.581C7.57643 18.7267 7.77407 18.8086 7.98015 18.8086C8.18623 18.8086 8.38387 18.7267 8.52959 18.581C8.67532 18.4353 8.75718 18.2376 8.75718 18.0315V13.8874ZM16.2685 13.1104C16.4745 13.1104 16.6722 13.1922 16.8179 13.3379C16.9636 13.4837 17.0455 13.6813 17.0455 13.8874V18.0315C17.0455 18.2376 16.9636 18.4353 16.8179 18.581C16.6722 18.7267 16.4745 18.8086 16.2685 18.8086C16.0624 18.8086 15.8647 18.7267 15.719 18.581C15.5733 18.4353 15.4914 18.2376 15.4914 18.0315V13.8874C15.4914 13.6813 15.5733 13.4837 15.719 13.3379C15.8647 13.1922 16.0624 13.1104 16.2685 13.1104ZM12.9013 13.8874C12.9013 13.6813 12.8195 13.4837 12.6737 13.3379C12.528 13.1922 12.3304 13.1104 12.1243 13.1104C11.9182 13.1104 11.7206 13.1922 11.5749 13.3379C11.4291 13.4837 11.3473 13.6813 11.3473 13.8874V18.0315C11.3473 18.2376 11.4291 18.4353 11.5749 18.581C11.7206 18.7267 11.9182 18.8086 12.1243 18.8086C12.3304 18.8086 12.528 18.7267 12.6737 18.581C12.8195 18.4353 12.9013 18.2376 12.9013 18.0315V13.8874Z" fill="white"/>
<path fill-rule="evenodd" clip-rule="evenodd" d="M17.5893 4.01707C17.0962 3.82437 16.544 3.79225 15.8364 3.78707C15.6894 3.47675 15.4573 3.21454 15.1672 3.03094C14.877 2.84735 14.5407 2.74992 14.1973 2.75H10.0532C9.70995 2.74983 9.3737 2.8471 9.08356 3.03051C8.79341 3.21391 8.56129 3.47591 8.41418 3.78604C7.70553 3.79225 7.15436 3.82437 6.66121 4.01707C6.0725 4.24736 5.56051 4.63871 5.18382 5.14636C4.80359 5.65712 4.62436 6.31397 4.37985 7.21636L3.72922 9.60235C3.32126 9.80738 2.96388 10.1004 2.68282 10.4602C2.03841 11.2859 1.92444 12.2691 2.03944 13.3963C2.1503 14.4904 2.4953 15.8683 2.92629 17.5923L2.95323 17.7031C3.22674 18.793 3.44742 19.6789 3.71057 20.3699C3.98512 21.091 4.33427 21.6815 4.90823 22.1301C5.48323 22.5787 6.14112 22.7725 6.90675 22.8657C7.64026 22.9527 8.55405 22.9527 9.67815 22.9527H14.5724C15.6965 22.9527 16.6092 22.9527 17.3438 22.8647C18.1105 22.7735 18.7673 22.5787 19.3413 22.1291C19.9163 21.6815 20.2644 21.091 20.5389 20.3699C20.8031 19.6789 21.0238 18.793 21.2963 17.7021L21.3243 17.5933C21.7552 15.8683 22.0992 14.4904 22.2111 13.3974C22.3251 12.2681 22.2111 11.2859 21.5667 10.4602C21.2859 10.1005 20.9289 9.80751 20.5213 9.60235L19.8707 7.21636C19.6251 6.31397 19.4459 5.65712 19.0667 5.14532C18.6899 4.63805 18.1779 4.24707 17.5893 4.01707ZM7.22688 5.46442C7.45481 5.37532 7.7304 5.34942 8.41522 5.34217C8.70738 5.95343 9.33108 6.37613 10.0522 6.37613H14.1963C14.9195 6.37613 15.5432 5.95343 15.8353 5.34217C16.5201 5.34942 16.7957 5.37532 17.0237 5.46442C17.3407 5.58874 17.6163 5.79906 17.8193 6.07257C18.0017 6.31811 18.1084 6.66104 18.4099 7.76649L18.7766 9.11024C17.7012 8.96623 16.3129 8.96623 14.5879 8.96623H9.66157C7.93761 8.96623 6.54932 8.96623 5.47391 9.11024L5.84067 7.76649C6.14112 6.66104 6.24887 6.31811 6.43121 6.07257C6.63408 5.79917 6.90982 5.58841 7.22688 5.46442ZM10.0532 4.30406C9.9845 4.30406 9.91862 4.33135 9.87005 4.37992C9.82147 4.42849 9.79419 4.49437 9.79419 4.56307C9.79419 4.63176 9.82147 4.69764 9.87005 4.74621C9.91862 4.79479 9.9845 4.82208 10.0532 4.82208H14.1973C14.266 4.82208 14.3319 4.79479 14.3805 4.74621C14.4291 4.69764 14.4564 4.63176 14.4564 4.56307C14.4564 4.49437 14.4291 4.42849 14.3805 4.37992C14.3319 4.33135 14.266 4.30406 14.1973 4.30406H10.0532ZM3.90846 11.4165C4.19751 11.0466 4.6544 10.7979 5.5972 10.6612C6.56175 10.5224 7.86923 10.5203 9.72684 10.5203H14.5237C16.3813 10.5203 17.6878 10.5224 18.6523 10.6612C19.5961 10.7979 20.053 11.0466 20.3421 11.4175C20.6311 11.7874 20.7617 12.2898 20.6643 13.2388C20.5659 14.2086 20.2509 15.4767 19.8002 17.2794C19.5133 18.4273 19.3133 19.223 19.0874 19.8177C18.8678 20.3917 18.6533 20.6952 18.385 20.9055C18.1167 21.1148 17.7696 21.2485 17.1594 21.322C16.5274 21.3976 15.7089 21.3987 14.5237 21.3987H9.72684C8.54162 21.3987 7.72211 21.3976 7.09116 21.322C6.4799 21.2495 6.13387 21.1148 5.86553 20.9055C5.59616 20.6952 5.3817 20.3917 5.1631 19.8177C4.93724 19.223 4.73729 18.4273 4.44927 17.2794C3.99963 15.4767 3.68364 14.2086 3.58521 13.2388C3.48886 12.2898 3.6194 11.7863 3.90846 11.4165Z" fill="white"/>
</svg>
