<svg width="74" height="20" viewBox="0 0 74 20" fill="none" xmlns="http://www.w3.org/2000/svg">
<path d="M5.42188 10.3594H2.52344L2.50781 8.92969H5.03906C5.46615 8.92969 5.82812 8.86719 6.125 8.74219C6.42708 8.61198 6.65625 8.42708 6.8125 8.1875C6.96875 7.94271 7.04688 7.64844 7.04688 7.30469C7.04688 6.92448 6.97396 6.61458 6.82812 6.375C6.68229 6.13542 6.45833 5.96094 6.15625 5.85156C5.85938 5.74219 5.47917 5.6875 5.01562 5.6875H3.11719V15.5H1.15625V4.125H5.01562C5.64062 4.125 6.19792 4.1849 6.6875 4.30469C7.18229 4.42448 7.60156 4.61198 7.94531 4.86719C8.29427 5.11719 8.55729 5.4349 8.73438 5.82031C8.91667 6.20573 9.00781 6.66406 9.00781 7.19531C9.00781 7.66406 8.89583 8.09375 8.67188 8.48438C8.44792 8.86979 8.11719 9.1849 7.67969 9.42969C7.24219 9.67448 6.69792 9.82031 6.04688 9.86719L5.42188 10.3594ZM5.33594 15.5H1.90625L2.78906 13.9453H5.33594C5.77865 13.9453 6.14844 13.8724 6.44531 13.7266C6.74219 13.5755 6.96354 13.3698 7.10938 13.1094C7.26042 12.8438 7.33594 12.5339 7.33594 12.1797C7.33594 11.8099 7.27083 11.4896 7.14062 11.2188C7.01042 10.9427 6.80469 10.7318 6.52344 10.5859C6.24219 10.4349 5.875 10.3594 5.42188 10.3594H3.21875L3.23438 8.92969H6.10156L6.54688 9.46875C7.17188 9.48958 7.6849 9.6276 8.08594 9.88281C8.49219 10.138 8.79427 10.4688 8.99219 10.875C9.1901 11.2812 9.28906 11.7188 9.28906 12.1875C9.28906 12.9115 9.13021 13.5182 8.8125 14.0078C8.5 14.4974 8.04948 14.8698 7.46094 15.125C6.8724 15.375 6.16406 15.5 5.33594 15.5ZM13.0234 12.75L16.3438 7.04688H18.2266V15.5H16.3438V9.78906L13.0234 15.5H11.1406V7.04688H13.0234V12.75ZM22.1641 12.75L25.4844 7.04688H27.3672V15.5H25.4844V9.78906L22.1641 15.5H20.2812V7.04688H22.1641V12.75ZM24.9844 3.79688H26.3828C26.3828 4.22917 26.2786 4.61198 26.0703 4.94531C25.8672 5.27344 25.5755 5.53125 25.1953 5.71875C24.8203 5.90625 24.3724 6 23.8516 6C23.0651 6 22.4427 5.79688 21.9844 5.39062C21.5312 4.97917 21.3047 4.44792 21.3047 3.79688H22.7031C22.7031 4.08854 22.7891 4.34635 22.9609 4.57031C23.138 4.78906 23.4349 4.89844 23.8516 4.89844C24.263 4.89844 24.5547 4.78906 24.7266 4.57031C24.8984 4.34635 24.9844 4.08854 24.9844 3.79688ZM33.2812 7.04688V15.5H31.3906V7.04688H33.2812ZM36.0547 7.04688V8.53125H28.6641V7.04688H36.0547ZM39.2578 12.75L42.5781 7.04688H44.4609V15.5H42.5781V9.78906L39.2578 15.5H37.375V7.04688H39.2578V12.75Z" fill="#717171"/>
<path d="M68.1667 6.66667L66.9917 7.84167L68.3083 9.16667H61.5V10.8333H68.3083L66.9917 12.15L68.1667 13.3333L71.5 10L68.1667 6.66667ZM58.1667 4.16667H64V2.5H58.1667C57.25 2.5 56.5 3.25 56.5 4.16667V15.8333C56.5 16.75 57.25 17.5 58.1667 17.5H64V15.8333H58.1667V4.16667Z" fill="#717171"/>
</svg>
