<svg width="25" height="24" viewBox="0 0 25 24" fill="none" xmlns="http://www.w3.org/2000/svg">
    <path fill-rule="evenodd" clip-rule="evenodd" d="M5.77048 4.42505C4.11148 5.18305 2.89648 6.98705 2.89648 9.13805C2.89648 11.335 3.79648 13.029 5.08448 14.481C6.14748 15.677 7.43349 16.669 8.68748 17.635C8.98615 17.865 9.28115 18.0944 9.57248 18.323C10.0985 18.738 10.5675 19.101 11.0205 19.366C11.4735 19.631 11.8365 19.751 12.1465 19.751C12.4565 19.751 12.8205 19.631 13.2725 19.366C13.7255 19.101 14.1945 18.738 14.7205 18.323C15.0118 18.0937 15.3068 17.8647 15.6055 17.636C16.8595 16.668 18.1455 15.677 19.2085 14.481C20.4975 13.029 21.3965 11.335 21.3965 9.13805C21.3965 6.98805 20.1815 5.18305 18.5225 4.42505C16.9105 3.68805 14.7445 3.88305 12.6865 6.02205C12.6165 6.09463 12.5326 6.15237 12.4399 6.1918C12.3471 6.23124 12.2473 6.25156 12.1465 6.25156C12.0457 6.25156 11.9459 6.23124 11.8531 6.1918C11.7603 6.15237 11.6764 6.09463 11.6065 6.02205C9.54848 3.88305 7.38248 3.68805 5.77048 4.42505ZM12.1465 4.46105C9.83448 2.39105 7.24548 2.10105 5.14648 3.06005C2.93248 4.07505 1.39648 6.42705 1.39648 9.13905C1.39648 11.804 2.50648 13.838 3.96348 15.478C5.12948 16.791 6.55648 17.89 7.81748 18.86C8.10415 19.08 8.37948 19.294 8.64348 19.502C9.15648 19.906 9.70648 20.336 10.2635 20.662C10.8205 20.988 11.4565 21.252 12.1465 21.252C12.8365 21.252 13.4725 20.987 14.0295 20.662C14.5875 20.336 15.1365 19.906 15.6495 19.502C15.9135 19.294 16.1888 19.08 16.4755 18.86C17.7355 17.89 19.1635 16.79 20.3295 15.478C21.7865 13.838 22.8965 11.804 22.8965 9.13905C22.8965 6.42705 21.3615 4.07505 19.1465 3.06205C17.0475 2.10205 14.4585 2.39205 12.1465 4.46105Z" fill="black"/>
</svg>
