<svg width="33" height="32" viewBox="0 0 33 32" fill="none" xmlns="http://www.w3.org/2000/svg">
<path d="M7.39897 19.4063L7.39887 19.4062C5.66487 17.4514 4.44375 15.1588 4.44375 12.1827C4.44375 9.25854 6.0957 6.79837 8.36341 5.76224C10.5777 4.74988 13.5326 5.03196 16.3152 7.92401M7.39897 19.4063L16.2071 8.02801M7.39897 19.4063C8.82725 21.0133 10.5534 22.3443 12.2235 23.6308L12.2236 23.6309C12.6213 23.9372 13.0142 24.2426 13.4022 24.5471L7.39897 19.4063ZM16.3152 7.92401L16.2071 8.02801M16.3152 7.92401C16.3151 7.92398 16.3151 7.92395 16.3151 7.92391L16.2071 8.02801M16.3152 7.92401C16.3944 8.00623 16.4895 8.07163 16.5946 8.11631C16.6997 8.161 16.8128 8.18404 16.9271 8.18404C17.0413 8.18404 17.1544 8.161 17.2596 8.11631C17.3647 8.07163 17.4597 8.00623 17.539 7.92401M16.2071 8.02801C16.3004 8.12479 16.4122 8.20177 16.5359 8.25436C16.6596 8.30694 16.7927 8.33404 16.9271 8.33404C17.0615 8.33404 17.1945 8.30694 17.3183 8.25436C17.442 8.20177 17.5538 8.12479 17.6471 8.02801M17.539 7.92401L17.6471 8.02801M17.539 7.92401C17.539 7.92398 17.5391 7.92395 17.5391 7.92391L17.6471 8.02801M17.539 7.92401C20.3215 5.03195 23.2765 4.74988 25.4908 5.76226C27.7585 6.7984 29.4104 9.25991 29.4104 12.1827C29.4104 15.1588 28.1907 17.4514 26.4553 19.4063L26.4552 19.4063C25.0349 21.0044 23.3199 22.3282 21.6586 23.6106L21.6307 23.6321L21.6303 23.6324C21.2326 23.9369 20.8399 24.2418 20.452 24.5471C20.452 24.5471 20.4519 24.5472 20.4519 24.5472L20.3591 24.4293C19.6577 24.9827 19.0324 25.4667 18.4284 25.82L17.6471 8.02801M16.827 6.05843L16.9271 6.14799L17.0271 6.05845C20.0697 3.33568 23.4587 2.96488 26.198 4.21775L26.2604 4.08134L26.198 4.21776C29.0956 5.54294 31.1104 8.6241 31.1104 12.184C31.1104 15.6905 29.6516 18.3685 27.7256 20.5364C26.1819 22.2734 24.2893 23.7318 22.6076 25.0265C22.225 25.3201 21.8574 25.6058 21.5049 25.8835C20.8196 26.4233 20.0956 26.9899 19.3622 27.4185C18.6298 27.8458 17.809 28.1847 16.9271 28.1847C16.0451 28.1847 15.2242 27.847 14.4922 27.4186C13.7599 26.99 13.0345 26.4232 12.3492 25.8835C11.9967 25.6058 11.6291 25.32 11.2464 25.0263C9.56337 23.7317 7.67224 22.2747 6.12857 20.5364L6.12855 20.5364C4.20261 18.3685 2.74375 15.6905 2.74375 12.184C2.74375 8.6242 4.75975 5.54299 7.65614 4.21509C10.3955 2.96354 13.7845 3.33436 16.827 6.05843Z" fill="black" stroke="white" stroke-width="0.3"/>
</svg>
