<svg width="18" height="19" viewBox="0 0 18 19" fill="none" xmlns="http://www.w3.org/2000/svg">
<path d="M9.00041 2.5625L9.00041 11.8287M9.00041 15.0995L9.00041 16.4375M9.00041 15.0995C8.56678 15.0995 8.15091 14.9272 7.84429 14.6206C7.53766 14.314 7.36541 13.8981 7.36541 13.4645C7.36541 13.0309 7.53766 12.615 7.84429 12.3084C8.15091 12.0018 8.56678 11.8295 9.00041 11.8295C9.43404 11.8295 9.8499 12.0018 10.1565 12.3084C10.4631 12.615 10.6354 13.0309 10.6354 13.4645C10.6354 13.8981 10.4631 14.314 10.1565 14.6206C9.8499 14.9272 9.43404 15.0995 9.00041 15.0995ZM13.9557 2.5625L13.9557 6.8735M13.9557 6.8735C14.3894 6.8735 14.8057 7.04617 15.1124 7.35287C15.4191 7.65956 15.5914 8.07552 15.5914 8.50925C15.5914 8.94288 15.4184 9.35875 15.1118 9.66537C14.8052 9.97199 14.3893 10.1443 13.9557 10.1443M13.9557 6.8735C13.5219 6.8735 13.1063 7.04617 12.7996 7.35287C12.493 7.65956 12.3207 8.07552 12.3207 8.50925C12.3207 8.94288 12.4929 9.35875 12.7995 9.66537C13.1062 9.97199 13.522 10.1443 13.9557 10.1443M13.9557 10.1443L13.9557 16.4375M4.04516 2.5625L4.04516 4.89125M4.04516 8.162L4.04516 16.4375M4.04516 8.162C3.61153 8.162 3.19566 7.98974 2.88904 7.68312C2.58242 7.3765 2.41016 6.96063 2.41016 6.527C2.41016 6.31229 2.45245 6.09968 2.53461 5.90131C2.61678 5.70295 2.73721 5.5227 2.88904 5.37088C3.04086 5.21906 3.2211 5.09862 3.41947 5.01646C3.61784 4.93429 3.83045 4.892 4.04516 4.892C4.25987 4.892 4.47248 4.93429 4.67084 5.01646C4.86921 5.09862 5.04945 5.21906 5.20128 5.37088C5.3531 5.5227 5.47353 5.70295 5.5557 5.90131C5.63787 6.09968 5.68016 6.31229 5.68016 6.527C5.68016 6.96063 5.5079 7.3765 5.20128 7.68312C4.89465 7.98974 4.47879 8.162 4.04516 8.162Z" stroke="white" stroke-width="1.5" stroke-miterlimit="10" stroke-linecap="round"/>
</svg>
