<svg width="24" height="24" viewBox="0 0 24 24" fill="none" xmlns="http://www.w3.org/2000/svg">
<path d="M21.25 12.0009H8.895M4.534 12.0009H2.75M4.534 12.0009C4.534 11.4227 4.76368 10.8682 5.17251 10.4594C5.58134 10.0505 6.13583 9.82087 6.714 9.82087C7.29217 9.82087 7.84666 10.0505 8.25549 10.4594C8.66432 10.8682 8.894 11.4227 8.894 12.0009C8.894 12.579 8.66432 13.1335 8.25549 13.5424C7.84666 13.9512 7.29217 14.1809 6.714 14.1809C6.13583 14.1809 5.58134 13.9512 5.17251 13.5424C4.76368 13.1335 4.534 12.579 4.534 12.0009ZM21.25 18.6079H15.502M15.502 18.6079C15.502 19.1862 15.2718 19.7413 14.8628 20.1502C14.4539 20.5591 13.8993 20.7889 13.321 20.7889C12.7428 20.7889 12.1883 20.5582 11.7795 20.1494C11.3707 19.7405 11.141 19.186 11.141 18.6079M15.502 18.6079C15.502 18.0296 15.2718 17.4754 14.8628 17.0665C14.4539 16.6576 13.8993 16.4279 13.321 16.4279C12.7428 16.4279 12.1883 16.6575 11.7795 17.0664C11.3707 17.4752 11.141 18.0297 11.141 18.6079M11.141 18.6079H2.75M21.25 5.39387H18.145M13.784 5.39387H2.75M13.784 5.39387C13.784 4.8157 14.0137 4.2612 14.4225 3.85237C14.8313 3.44355 15.3858 3.21387 15.964 3.21387C16.2503 3.21387 16.5338 3.27025 16.7983 3.37981C17.0627 3.48937 17.3031 3.64994 17.5055 3.85237C17.7079 4.05481 17.8685 4.29513 17.9781 4.55962C18.0876 4.82411 18.144 5.10759 18.144 5.39387C18.144 5.68015 18.0876 5.96363 17.9781 6.22812C17.8685 6.49261 17.7079 6.73293 17.5055 6.93536C17.3031 7.13779 17.0627 7.29837 16.7983 7.40792C16.5338 7.51748 16.2503 7.57387 15.964 7.57387C15.3858 7.57387 14.8313 7.34419 14.4225 6.93536C14.0137 6.52653 13.784 5.97204 13.784 5.39387Z" stroke="black" stroke-width="1.5" stroke-miterlimit="10" stroke-linecap="round"/>
</svg>
