<svg width="25" height="25" viewBox="0 0 25 25" fill="none" xmlns="http://www.w3.org/2000/svg">
<path d="M10.356 5.64293H14.6417C14.6417 5.07461 14.416 4.52956 14.0141 4.1277C13.6122 3.72583 13.0672 3.50007 12.4989 3.50007C11.9306 3.50007 11.3855 3.72583 10.9837 4.1277C10.5818 4.52956 10.356 5.07461 10.356 5.64293ZM9.07031 5.64293C9.07031 4.73361 9.43154 3.86154 10.0745 3.21856C10.7175 2.57558 11.5896 2.21436 12.4989 2.21436C13.4082 2.21436 14.2803 2.57558 14.9232 3.21856C15.5662 3.86154 15.9275 4.73361 15.9275 5.64293H21.2846C21.4551 5.64293 21.6186 5.71066 21.7392 5.83122C21.8597 5.95177 21.9275 6.11529 21.9275 6.28578C21.9275 6.45628 21.8597 6.61979 21.7392 6.74035C21.6186 6.86091 21.4551 6.92864 21.2846 6.92864H20.1617L19.1186 19.4455C19.0427 20.3561 18.6274 21.2049 17.955 21.8236C17.2827 22.4423 16.4023 22.7857 15.4886 22.7858H9.50917C8.59545 22.7857 7.71512 22.4423 7.04274 21.8236C6.37037 21.2049 5.95506 20.3561 5.87917 19.4455L4.83603 6.92864H3.71317C3.54267 6.92864 3.37916 6.86091 3.2586 6.74035C3.13804 6.61979 3.07031 6.45628 3.07031 6.28578C3.07031 6.11529 3.13804 5.95177 3.2586 5.83122C3.37916 5.71066 3.54267 5.64293 3.71317 5.64293H9.07031ZM11.2132 10.5715C11.2132 10.401 11.1454 10.2375 11.0249 10.1169C10.9043 9.99637 10.7408 9.92864 10.5703 9.92864C10.3998 9.92864 10.2363 9.99637 10.1157 10.1169C9.99519 10.2375 9.92746 10.401 9.92746 10.5715V17.8572C9.92746 18.0277 9.99519 18.1912 10.1157 18.3118C10.2363 18.4323 10.3998 18.5001 10.5703 18.5001C10.7408 18.5001 10.9043 18.4323 11.0249 18.3118C11.1454 18.1912 11.2132 18.0277 11.2132 17.8572V10.5715ZM14.4275 9.92864C14.257 9.92864 14.0934 9.99637 13.9729 10.1169C13.8523 10.2375 13.7846 10.401 13.7846 10.5715V17.8572C13.7846 18.0277 13.8523 18.1912 13.9729 18.3118C14.0934 18.4323 14.257 18.5001 14.4275 18.5001C14.598 18.5001 14.7615 18.4323 14.882 18.3118C15.0026 18.1912 15.0703 18.0277 15.0703 17.8572V10.5715C15.0703 10.401 15.0026 10.2375 14.882 10.1169C14.7615 9.99637 14.598 9.92864 14.4275 9.92864Z" fill="#9BA7E6"/>
</svg>
