<svg width="46" height="18" viewBox="0 0 46 18" fill="none" xmlns="http://www.w3.org/2000/svg">
<g clip-path="url(#clip0_68_7928)">
<path d="M32.0234 4.8579C33.2653 4.8579 34.2251 5.19663 34.959 5.8741C35.6929 6.55148 36.0315 7.45475 36.0315 8.58381V14.0032H34.4509V12.7614H34.3944C33.717 13.7776 32.7573 14.2857 31.6282 14.2857C30.6685 14.2857 29.8217 14.0033 29.1443 13.4389C28.5233 12.8743 28.1281 12.084 28.1281 11.2372C28.1281 10.3339 28.4668 9.60001 29.1443 9.03548C29.8217 8.47095 30.7814 8.24516 31.9105 8.24516C32.9266 8.24516 33.717 8.41457 34.3379 8.80969V8.41457C34.3379 7.88763 34.1412 7.36078 33.7478 7.01745L33.6605 6.94678C33.2089 6.55157 32.6443 6.32578 32.0234 6.32578C31.0637 6.32578 30.3298 6.72095 29.8217 7.51131L28.354 6.60787C29.2572 5.42234 30.4427 4.8579 32.0234 4.8579ZM24.0635 1.01904C25.0765 1.01904 26.0391 1.37154 26.8088 2.0289L26.9427 2.14801C27.733 2.82548 28.1281 3.84169 28.1281 4.91428C28.1281 5.98687 27.733 6.9466 26.9427 7.68045C26.1523 8.41431 25.1926 8.80951 24.0635 8.80951L21.3538 8.75304V14.0032H19.6602V1.01904H24.0635ZM32.2491 9.59993C31.5717 9.59993 31.0072 9.76928 30.5556 10.108C30.104 10.3902 29.8782 10.7854 29.8782 11.2934C29.8782 11.7451 30.104 12.1402 30.4427 12.3661C30.8379 12.6484 31.2895 12.8177 31.7412 12.8177C32.3734 12.8177 33.0057 12.5718 33.5002 12.1259L33.6041 12.0274C34.1686 11.5193 34.4509 10.8983 34.4509 10.2208C33.9428 9.82572 33.2089 9.59984 32.2492 9.59984M24.1766 2.5996H21.3539V7.1161H24.1766C24.7975 7.1161 25.4185 6.89031 25.8137 6.43872C26.7169 5.59193 26.7169 4.1806 25.8702 3.33372L25.8137 3.27725C25.362 2.82566 24.7975 2.5434 24.1765 2.59987M45.1769 5.14016L39.5881 17.955H37.8945L39.9832 13.4952L36.3138 5.19663H38.1203L40.7735 11.5758H40.83L43.4269 5.19663H45.1769V5.14016Z" fill="#5F6368"/>
<path d="M14.6362 7.62403C14.6362 7.11597 14.5797 6.60791 14.5232 6.09985H7.4668V8.97897H11.4749C11.3056 9.88215 10.7975 10.7289 10.0072 11.2371V13.1H12.4346C13.8459 11.8016 14.6363 9.88215 14.6363 7.62412" fill="#4285F4"/>
<path d="M7.4661 14.9067C9.49833 14.9067 11.1919 14.2292 12.4339 13.1002L10.0065 11.2373C9.32901 11.6889 8.48222 11.9711 7.4661 11.9711C5.54663 11.9711 3.85304 10.6727 3.28851 8.86621H0.804688V10.7856C2.10307 13.326 4.64345 14.9067 7.4661 14.9067Z" fill="#34A853"/>
<path d="M3.28833 8.86613C2.94968 7.96286 2.94968 6.94674 3.28833 5.98701V4.06763H0.804507C-0.268169 6.15642 -0.268169 8.64033 0.804507 10.7855L3.28833 8.86613Z" fill="#FBBC04"/>
<path d="M7.46636 2.93862C8.53895 2.93862 9.55506 3.33382 10.3455 4.06768L12.4907 1.9225C11.1357 0.680501 9.32927 -0.0533523 7.52274 0.00303004C4.70009 0.00303004 2.10333 1.58377 0.861328 4.12415L3.34524 6.04353C3.8533 4.237 5.54689 2.93862 7.46636 2.93862Z" fill="#EA4335"/>
</g>
<defs>
<clipPath id="clip0_68_7928">
<rect width="45.1765" height="18" fill="white"/>
</clipPath>
</defs>
</svg>
