<svg width="32" height="32" viewBox="0 0 32 32" fill="none" xmlns="http://www.w3.org/2000/svg">
<path fill-rule="evenodd" clip-rule="evenodd" d="M7.49802 5.89868C5.28602 6.90934 3.66602 9.31468 3.66602 12.1827C3.66602 15.112 4.86602 17.3707 6.58335 19.3067C8.00068 20.9013 9.71535 22.224 11.3873 23.512C11.7856 23.8187 12.1789 24.1245 12.5673 24.4293C13.2687 24.9827 13.894 25.4667 14.498 25.82C15.102 26.1733 15.586 26.3333 15.9993 26.3333C16.4127 26.3333 16.898 26.1733 17.5007 25.82C18.1047 25.4667 18.73 24.9827 19.4313 24.4293C19.8198 24.1236 20.2131 23.8182 20.6113 23.5133C22.2833 22.2227 23.998 20.9013 25.4153 19.3067C27.134 17.3707 28.3327 15.112 28.3327 12.1827C28.3327 9.31601 26.7127 6.90934 24.5007 5.89868C22.3513 4.91601 19.4633 5.17601 16.7193 8.02801C16.6261 8.12479 16.5142 8.20177 16.3905 8.25436C16.2668 8.30694 16.1338 8.33404 15.9993 8.33404C15.8649 8.33404 15.7319 8.30694 15.6082 8.25436C15.4845 8.20177 15.3726 8.12479 15.2793 8.02801C12.5353 5.17601 9.64735 4.91601 7.49802 5.89868ZM15.9993 5.94668C12.9167 3.18668 9.46468 2.80001 6.66602 4.07868C3.71402 5.43201 1.66602 8.56801 1.66602 12.184C1.66602 15.7373 3.14602 18.4493 5.08868 20.636C6.64335 22.3867 8.54602 23.852 10.2273 25.1453C10.6096 25.4387 10.9767 25.724 11.3287 26.0013C12.0127 26.54 12.746 27.1133 13.4887 27.548C14.2313 27.9827 15.0793 28.3347 15.9993 28.3347C16.9193 28.3347 17.7673 27.9813 18.51 27.548C19.254 27.1133 19.986 26.54 20.67 26.0013C21.022 25.724 21.3891 25.4387 21.7713 25.1453C23.4513 23.852 25.3553 22.3853 26.91 20.636C28.8527 18.4493 30.3327 15.7373 30.3327 12.184C30.3327 8.56801 28.286 5.43201 25.3327 4.08134C22.534 2.80134 19.082 3.18801 15.9993 5.94668Z" fill="#DB0614"/>
</svg>
