<svg width="38" height="56" viewBox="0 0 38 56" fill="none" xmlns="http://www.w3.org/2000/svg">
<path d="M19 26.6C17.2003 26.6 15.4743 25.8625 14.2018 24.5497C12.9292 23.237 12.2143 21.4565 12.2143 19.6C12.2143 17.7435 12.9292 15.963 14.2018 14.6503C15.4743 13.3375 17.2003 12.6 19 12.6C20.7997 12.6 22.5257 13.3375 23.7982 14.6503C25.0708 15.963 25.7857 17.7435 25.7857 19.6C25.7857 20.5193 25.6102 21.4295 25.2692 22.2788C24.9282 23.1281 24.4283 23.8997 23.7982 24.5497C23.1681 25.1998 22.4201 25.7154 21.5968 26.0672C20.7735 26.4189 19.8911 26.6 19 26.6ZM19 0C13.9609 0 9.12816 2.06499 5.56497 5.74071C2.00178 9.41642 0 14.4018 0 19.6C0 34.3 19 56 19 56C19 56 38 34.3 38 19.6C38 14.4018 35.9982 9.41642 32.435 5.74071C28.8718 2.06499 24.0391 0 19 0Z" fill="#E81010"/>
</svg>
