<svg width="18" height="19" viewBox="0 0 18 19" fill="none" xmlns="http://www.w3.org/2000/svg">
<g clip-path="url(#clip0_68_7890)">
<g filter="url(#filter0_di_68_7890)">
<path fill-rule="evenodd" clip-rule="evenodd" d="M6.03585 16.9544C6.02844 16.955 6.02092 16.9556 6.0134 16.9564C6.00568 16.957 5.99795 16.9577 5.99022 16.9584C5.44397 17.0074 4.81651 17.0637 4.21552 16.9451C3.5528 16.8145 2.94313 16.4799 2.41806 15.8087C1.41303 14.524 1.71151 12.6799 2.61437 11.57C2.92386 11.1536 3.2827 10.831 3.62481 10.5705C3.07581 10.5365 2.5681 10.292 2.16246 9.93488C1.62511 9.46191 1.23292 8.76901 1.07484 7.97722C0.916758 7.18533 1.0129 6.39492 1.32737 5.75189C1.64226 5.10813 2.19857 4.5784 2.95372 4.42762C3.66197 4.28627 4.33676 4.51985 4.86162 4.93999C4.84002 4.76475 4.8289 4.58571 4.8289 4.40433C4.8289 3.52191 5.0917 2.69602 5.55006 2.0746C6.00811 1.45339 6.69635 1 7.51852 1C8.3407 1 9.02883 1.45339 9.48698 2.0746C9.82771 2.53656 10.0604 3.11161 10.1574 3.73896C10.5147 3.12146 11.0015 2.62254 11.5527 2.30119C12.2348 1.90349 13.0635 1.75685 13.8322 2.09133C14.6009 2.42581 15.0584 3.13194 15.2325 3.90202C15.4065 4.67264 15.3144 5.55654 14.9532 6.38698C14.8998 6.50948 14.8417 6.6286 14.779 6.7438C15.5428 6.47973 16.3681 6.52505 17.0469 7.04302C18.2988 7.99819 18.1322 9.85854 17.189 11.0949C16.4095 12.1166 15.0787 12.7393 13.9337 12.3856C14.1396 12.6933 14.3432 13.0527 14.5086 13.5159C15.0514 15.0367 14.7525 17.09 12.9215 17.9063C11.4627 18.5567 10.2949 17.989 9.37644 17.5425C9.35759 17.5334 9.33885 17.5243 9.32022 17.5153C8.71827 17.2231 8.21661 16.9862 7.65892 16.9217C7.11988 16.8594 6.59904 16.9038 6.03585 16.9544Z" fill="white"/>
</g>
<path fill-rule="evenodd" clip-rule="evenodd" d="M9.52422 4.40444C9.52422 5.90807 8.62528 7.12699 7.51648 7.12699C6.40757 7.12699 5.50863 5.90807 5.50863 4.40444C5.50863 2.9008 6.40757 1.68188 7.51648 1.68188C8.62528 1.68188 9.52422 2.9008 9.52422 4.40444ZM5.28289 10.2398C5.68884 9.90524 6.04704 9.54322 6.38777 9.19889C7.31594 8.26088 8.11503 7.45332 9.3997 7.68414C10.9419 7.96134 11.3551 8.94509 11.8655 10.16C12.0219 10.5323 12.1874 10.9264 12.3972 11.3284C12.6013 11.7191 12.8237 12.0193 13.0411 12.3129C13.347 12.7258 13.6431 13.1254 13.8643 13.7453C14.3377 15.0712 14.0265 16.6662 12.6418 17.2836C11.4744 17.8042 10.5667 17.3635 9.61591 16.9019C9.02911 16.6171 8.4259 16.3244 7.73512 16.2444C7.11635 16.1729 6.52807 16.2256 5.97303 16.2752C4.81351 16.379 3.79884 16.4698 2.95305 15.3887C2.18784 14.4106 2.38849 12.9149 3.15052 11.989C3.59989 11.3789 4.17906 10.9968 4.67809 10.6674C4.90214 10.5195 5.11009 10.3822 5.28289 10.2398ZM11.3161 7.86997C12.3592 8.32378 13.7067 7.53813 14.3259 6.11507C14.945 4.69201 14.6013 3.17049 13.5581 2.71657C12.515 2.26276 11.1674 3.04851 10.5483 4.47157C9.92911 5.89463 10.2729 7.41615 11.3161 7.86997ZM16.6448 10.6814C15.8229 11.7586 14.4844 12.1189 13.655 11.4862C12.8256 10.8533 12.8195 9.4671 13.6413 8.38985C14.4633 7.3126 15.8019 6.95239 16.6313 7.58514C17.4606 8.2179 17.4668 9.60411 16.6448 10.6814ZM4.03708 9.86458C5.04211 9.66393 5.64374 8.4339 5.38083 7.11714C5.11793 5.8005 4.09013 4.89573 3.08509 5.09638C2.08016 5.29692 1.47854 6.52706 1.74134 7.84371C2.00424 9.16046 3.03204 10.0652 4.03708 9.86458Z" fill="black"/>
</g>
<defs>
<filter id="filter0_di_68_7890" x="-3" y="-2" width="24.9409" height="34.2004" filterUnits="userSpaceOnUse" color-interpolation-filters="sRGB">
<feFlood flood-opacity="0" result="BackgroundImageFix"/>
<feColorMatrix in="SourceAlpha" type="matrix" values="0 0 0 0 0 0 0 0 0 0 0 0 0 0 0 0 0 0 127 0" result="hardAlpha"/>
<feOffset dy="1"/>
<feGaussianBlur stdDeviation="2"/>
<feComposite in2="hardAlpha" operator="out"/>
<feColorMatrix type="matrix" values="0 0 0 0 0 0 0 0 0 0 0 0 0 0 0 0 0 0 0.15 0"/>
<feBlend mode="normal" in2="BackgroundImageFix" result="effect1_dropShadow_68_7890"/>
<feBlend mode="normal" in="SourceGraphic" in2="effect1_dropShadow_68_7890" result="shape"/>
<feColorMatrix in="SourceAlpha" type="matrix" values="0 0 0 0 0 0 0 0 0 0 0 0 0 0 0 0 0 0 127 0" result="hardAlpha"/>
<feOffset dy="14"/>
<feGaussianBlur stdDeviation="14"/>
<feComposite in2="hardAlpha" operator="arithmetic" k2="-1" k3="1"/>
<feColorMatrix type="matrix" values="0 0 0 0 0.354809 0 0 0 0 0.391219 0 0 0 0 0.445833 0 0 0 0.12 0"/>
<feBlend mode="normal" in2="shape" result="effect2_innerShadow_68_7890"/>
</filter>
<clipPath id="clip0_68_7890">
<rect width="18" height="18" fill="white" transform="translate(0 0.5)"/>
</clipPath>
</defs>
</svg>
