<svg width="32" height="32" viewBox="0 0 32 32" fill="none" xmlns="http://www.w3.org/2000/svg">
<path d="M8.38011 11.3905L8.10006 11.4785V11.7721V21.0001C8.10006 22.601 9.39914 23.9001 11.0001 23.9001H12.2581H13.2237L12.5409 23.2172L11.6011 22.2774C11.3951 22.0711 11.2794 21.7916 11.2794 21.5001C11.2794 21.2086 11.3951 20.929 11.6011 20.7227L11.6021 20.7217C11.7038 20.6191 11.8249 20.5376 11.9582 20.4821C12.0916 20.4265 12.2346 20.3979 12.3791 20.3979C12.5235 20.3979 12.6666 20.4265 12.7999 20.4821C12.9333 20.5376 13.0543 20.6191 13.156 20.7217L13.1572 20.7229L16.6572 24.2229L17.4344 25.0001L16.6572 25.7772L13.1572 29.2772L13.1572 29.2772L13.1522 29.2823C13.0508 29.3874 12.9295 29.4713 12.7953 29.529C12.6611 29.5867 12.5168 29.6171 12.3707 29.6185C12.2247 29.6198 12.0798 29.592 11.9446 29.5368C11.8094 29.4815 11.6865 29.3999 11.5832 29.2967C11.4799 29.1934 11.3981 29.0707 11.3428 28.9355C11.2874 28.8004 11.2595 28.6555 11.2607 28.5095C11.2619 28.3634 11.2922 28.219 11.3497 28.0848C11.4073 27.9506 11.4911 27.8292 11.5961 27.7276L11.5961 27.7277L11.6009 27.7229L12.5409 26.7829L13.2237 26.1001H12.2581H11.0001C9.64745 26.1001 8.35025 25.5627 7.39381 24.6063C6.43738 23.6499 5.90006 22.3527 5.90006 21.0001V11.7721V11.4785L5.62001 11.3905C4.57107 11.0607 3.67485 10.3663 3.09361 9.43298C2.51237 8.49962 2.28452 7.38899 2.45132 6.30217C2.61811 5.21535 3.16853 4.22416 4.00292 3.50806C4.8373 2.79196 5.90051 2.39827 7.00006 2.39827C8.09961 2.39827 9.16281 2.79196 9.9972 3.50806C10.8316 4.22416 11.382 5.21535 11.5488 6.30217C11.7156 7.38899 11.4878 8.49962 10.9065 9.43298C10.3253 10.3663 9.42905 11.0607 8.38011 11.3905ZM18.8429 2.72291L18.8431 2.72308L18.8527 2.71275C18.9534 2.60468 19.0748 2.518 19.2098 2.45787C19.3447 2.39775 19.4904 2.36542 19.6381 2.36282C19.7858 2.36021 19.9325 2.38738 20.0694 2.44271C20.2064 2.49803 20.3308 2.58038 20.4353 2.68483C20.5397 2.78928 20.6221 2.91371 20.6774 3.05067C20.7327 3.18765 20.7599 3.33436 20.7573 3.48205C20.7547 3.62975 20.7224 3.77541 20.6622 3.91034C20.6021 4.04527 20.5154 4.16671 20.4074 4.26742L20.4072 4.26724L20.3972 4.27722L19.4572 5.21722L18.7744 5.90006H19.7401H21.0001C22.3527 5.90006 23.6499 6.43738 24.6063 7.39382C25.5627 8.35025 26.1001 9.64746 26.1001 11.0001V20.2281V20.5216L26.3801 20.6097C27.4291 20.9394 28.3253 21.6338 28.9065 22.5672C29.4877 23.5005 29.7156 24.6111 29.5488 25.698C29.382 26.7848 28.8316 27.776 27.9972 28.4921C27.1628 29.2082 26.0996 29.6019 25.0001 29.6019C23.9005 29.6019 22.8373 29.2082 22.0029 28.4921C21.1685 27.776 20.6181 26.7848 20.4513 25.698C20.2845 24.6111 20.5124 23.5005 21.0936 22.5672C21.6749 21.6338 22.5711 20.9394 23.62 20.6097L23.9001 20.5216V20.2281V11.0001C23.9001 9.39915 22.601 8.10006 21.0001 8.10006H19.7401H18.7744L19.4572 8.78291L20.3972 9.72291L20.397 9.72308L20.4074 9.73271C20.5154 9.83341 20.6021 9.95485 20.6622 10.0898C20.7224 10.2247 20.7547 10.3704 20.7573 10.5181C20.7599 10.6658 20.7327 10.8125 20.6774 10.9495C20.6221 11.0864 20.5397 11.2108 20.4353 11.3153C20.3308 11.4198 20.2064 11.5021 20.0694 11.5574C19.9325 11.6127 19.7858 11.6399 19.6381 11.6373C19.4904 11.6347 19.3447 11.6024 19.2098 11.5423C19.0748 11.4821 18.9534 11.3954 18.8527 11.2874L18.8529 11.2872L18.8429 11.2772L15.3429 7.77722L14.5657 7.00006L15.3429 6.22291L18.8429 2.72291ZM8.69711 8.69712C9.1472 8.24703 9.40006 7.63658 9.40006 7.00006C9.40006 6.36354 9.1472 5.75309 8.69711 5.30301C8.24703 4.85292 7.63658 4.60006 7.00006 4.60006C6.36354 4.60006 5.75309 4.85292 5.303 5.30301C4.85291 5.75309 4.60006 6.36354 4.60006 7.00006C4.60006 7.63658 4.85291 8.24703 5.303 8.69712C5.75309 9.14721 6.36354 9.40006 7.00006 9.40006C7.63658 9.40006 8.24703 9.14721 8.69711 8.69712ZM25.0001 27.4001C25.6366 27.4001 26.247 27.1472 26.6971 26.6971C27.1472 26.247 27.4001 25.6366 27.4001 25.0001C27.4001 24.3635 27.1472 23.7531 26.6971 23.303C26.247 22.8529 25.6366 22.6001 25.0001 22.6001C24.3635 22.6001 23.7531 22.8529 23.303 23.303C22.8529 23.7531 22.6001 24.3635 22.6001 25.0001C22.6001 25.6366 22.8529 26.247 23.303 26.6971C23.7531 27.1472 24.3635 27.4001 25.0001 27.4001Z" fill="black" stroke="#F8F8F8" stroke-width="0.8"/>
</svg>
