<svg width="16" height="16" viewBox="0 0 16 16" fill="none" xmlns="http://www.w3.org/2000/svg">
<path d="M14.3672 6.73661L14.3267 6.77191L11.508 9.23191L11.2822 9.42895L11.3495 9.72095L12.1939 13.3835L12.1942 13.3848C12.2165 13.4805 12.2102 13.5807 12.1759 13.6728C12.1416 13.7649 12.0809 13.8449 12.0014 13.9027C11.9219 13.9606 11.8271 13.9937 11.7289 13.9979C11.6309 14.0022 11.5338 13.9775 11.4497 13.927C11.4496 13.9269 11.4494 13.9267 11.4492 13.9266L8.25603 11.9899L7.99645 11.8324L7.73703 11.9901L4.55115 13.9266C4.5509 13.9268 4.55065 13.9269 4.5504 13.9271C4.46638 13.9775 4.36938 14.0022 4.27145 13.9979C4.17324 13.9937 4.07846 13.9606 3.99896 13.9027C3.91946 13.8449 3.85877 13.7649 3.82448 13.6728C3.79018 13.5807 3.78381 13.4805 3.80615 13.3848L3.80646 13.3834L4.64959 9.72465L4.71682 9.43289L4.49137 9.23588L1.67199 6.77213L1.672 6.77212L1.66954 6.76999C1.59498 6.70569 1.54106 6.6208 1.51456 6.52598C1.48805 6.43115 1.49013 6.33061 1.52053 6.23697C1.55093 6.14332 1.60831 6.06073 1.68546 5.99956C1.76262 5.93839 1.85611 5.90136 1.95423 5.89312L1.9555 5.89301L5.67175 5.57114L5.97286 5.54505L6.08972 5.26632L7.54035 1.80633L7.54067 1.80554C7.57843 1.71505 7.64212 1.63775 7.72372 1.58338C7.80532 1.52901 7.90118 1.5 7.99923 1.5C8.09729 1.5 8.19315 1.52901 8.27475 1.58338C8.35634 1.63775 8.42003 1.71505 8.45779 1.80554L8.45833 1.80682L9.91333 5.26682L10.0303 5.54508L10.3311 5.57113L14.0461 5.89301L14.0474 5.89312C14.1455 5.90136 14.239 5.93839 14.3161 5.99956C14.3933 6.06073 14.4507 6.14332 14.4811 6.23696C14.5115 6.33061 14.5135 6.43115 14.487 6.52598C14.4649 6.60519 14.4236 6.67747 14.3672 6.73661Z" stroke="#DB0614"/>
</svg>
