<svg width="26" height="26" viewBox="0 0 26 26" fill="none" xmlns="http://www.w3.org/2000/svg">
<path d="M25.4241 24.5754L18.9037 18.0551C20.7263 16.0136 21.6906 13.3458 21.5928 10.6085C21.4939 7.83941 20.3159 5.21881 18.3105 3.3067C16.3052 1.39459 13.6315 0.342629 10.8608 0.375606C8.09013 0.408583 5.44224 1.52388 3.48294 3.48318C1.52364 5.44248 0.408339 8.09038 0.375362 10.8611C0.342385 13.6317 1.39435 16.3054 3.30646 18.3108C5.21857 20.3162 7.83917 21.4942 10.6083 21.5931C13.3456 21.6909 16.0134 20.7265 18.0548 18.904L24.5752 25.4244C24.6878 25.5369 24.8404 25.6002 24.9996 25.6002C25.1589 25.6002 25.3115 25.5369 25.4241 25.4244C25.5367 25.3118 25.5999 25.1591 25.5999 24.9999C25.5999 24.8407 25.5367 24.688 25.4241 24.5754ZM1.59965 10.9999C1.59965 9.14075 2.15095 7.32335 3.18383 5.77753C4.21672 4.23171 5.6848 3.02689 7.40242 2.31542C9.12005 1.60396 11.0101 1.41781 12.8335 1.78051C14.6569 2.14321 16.3318 3.03848 17.6465 4.35309C18.9611 5.6677 19.8563 7.34262 20.219 9.16604C20.5817 10.9895 20.3956 12.8795 19.6841 14.5971C18.9727 16.3147 17.7678 17.7828 16.222 18.8157C14.6762 19.8486 12.8589 20.3999 10.9998 20.3999C8.50749 20.3973 6.11806 19.4061 4.35577 17.6438C2.5935 15.8815 1.6023 13.4921 1.59965 10.9999Z" fill="black" stroke="black" stroke-width="0.2"/>
</svg>
