<svg width="21" height="21" viewBox="0 0 21 21" fill="none" xmlns="http://www.w3.org/2000/svg">
    <path d="M7.15464 11.6384C7.15464 11.4323 7.07278 11.2346 6.92706 11.0889C6.78133 10.9432 6.58369 10.8613 6.37761 10.8613C6.17153 10.8613 5.97389 10.9432 5.82817 11.0889C5.68245 11.2346 5.60059 11.4323 5.60059 11.6384V15.7825C5.60059 15.9886 5.68245 16.1862 5.82817 16.3319C5.97389 16.4777 6.17153 16.5595 6.37761 16.5595C6.58369 16.5595 6.78133 16.4777 6.92706 16.3319C7.07278 16.1862 7.15464 15.9886 7.15464 15.7825V11.6384ZM14.6659 10.8613C14.872 10.8613 15.0696 10.9432 15.2154 11.0889C15.3611 11.2346 15.4429 11.4323 15.4429 11.6384V15.7825C15.4429 15.9886 15.3611 16.1862 15.2154 16.3319C15.0696 16.4777 14.872 16.5595 14.6659 16.5595C14.4598 16.5595 14.2622 16.4777 14.1165 16.3319C13.9708 16.1862 13.8889 15.9886 13.8889 15.7825V11.6384C13.8889 11.4323 13.9708 11.2346 14.1165 11.0889C14.2622 10.9432 14.4598 10.8613 14.6659 10.8613ZM11.2988 11.6384C11.2988 11.4323 11.2169 11.2346 11.0712 11.0889C10.9255 10.9432 10.7278 10.8613 10.5218 10.8613C10.3157 10.8613 10.118 10.9432 9.97232 11.0889C9.8266 11.2346 9.74474 11.4323 9.74474 11.6384V15.7825C9.74474 15.9886 9.8266 16.1862 9.97232 16.3319C10.118 16.4777 10.3157 16.5595 10.5218 16.5595C10.7278 16.5595 10.9255 16.4777 11.0712 16.3319C11.2169 16.1862 11.2988 15.9886 11.2988 15.7825V11.6384Z" fill="black"/>
    <path fill-rule="evenodd" clip-rule="evenodd" d="M15.9858 1.76805C15.4927 1.57535 14.9405 1.54323 14.2328 1.53805C14.0859 1.22773 13.8538 0.965515 13.5637 0.781921C13.2735 0.598328 12.9372 0.500901 12.5938 0.500977H8.44968C8.10643 0.500808 7.77018 0.59808 7.48004 0.781484C7.1899 0.964887 6.95778 1.22689 6.81067 1.53701C6.10202 1.54323 5.55085 1.57535 5.05769 1.76805C4.46899 1.99833 3.957 2.38969 3.5803 2.89733C3.20008 3.4081 3.02084 4.06495 2.77634 4.96733L2.12571 7.35333C1.71775 7.55836 1.36036 7.85134 1.07931 8.21117C0.434893 9.03689 0.320929 10.0201 0.435929 11.1473C0.546785 12.2414 0.891785 13.6193 1.32278 15.3433L1.34971 15.4541C1.62323 16.544 1.8439 17.4298 2.10706 18.1209C2.38161 18.842 2.73075 19.4325 3.30472 19.8811C3.87972 20.3297 4.5376 20.5234 5.30323 20.6167C6.03675 20.7037 6.95053 20.7037 8.07463 20.7037H12.9689C14.093 20.7037 15.0057 20.7037 15.7403 20.6156C16.5069 20.5245 17.1638 20.3297 17.7378 19.8801C18.3128 19.4325 18.6609 18.842 18.9354 18.1209C19.1996 17.4298 19.4203 16.544 19.6928 15.4531L19.7207 15.3443C20.1517 13.6193 20.4957 12.2414 20.6076 11.1483C20.7215 10.0191 20.6076 9.03689 19.9632 8.21117C19.6824 7.85146 19.3254 7.55849 18.9178 7.35333L18.2672 4.96733C18.0216 4.06495 17.8424 3.4081 17.4632 2.8963C17.0864 2.38903 16.5744 1.99805 15.9858 1.76805ZM5.62337 3.2154C5.8513 3.1263 6.12688 3.1004 6.8117 3.09314C7.10387 3.70441 7.72756 4.12711 8.44864 4.12711H12.5928C13.3159 4.12711 13.9396 3.70441 14.2318 3.09314C14.9166 3.1004 15.1922 3.1263 15.4201 3.2154C15.7372 3.33972 16.0128 3.55004 16.2158 3.82355C16.3982 4.06909 16.5049 4.41202 16.8064 5.51747L17.1731 6.86121C16.0977 6.7172 14.7094 6.7172 12.9844 6.7172H8.05806C6.33409 6.7172 4.9458 6.7172 3.87039 6.86121L4.23715 5.51747C4.5376 4.41202 4.64535 4.06909 4.82769 3.82355C5.03056 3.55015 5.30631 3.33939 5.62337 3.2154ZM8.44968 2.05503C8.38099 2.05503 8.31511 2.08232 8.26653 2.1309C8.21796 2.17947 8.19067 2.24535 8.19067 2.31404C8.19067 2.38274 8.21796 2.44862 8.26653 2.49719C8.31511 2.54576 8.38099 2.57305 8.44968 2.57305H12.5938C12.6625 2.57305 12.7284 2.54576 12.777 2.49719C12.8256 2.44862 12.8528 2.38274 12.8528 2.31404C12.8528 2.24535 12.8256 2.17947 12.777 2.1309C12.7284 2.08232 12.6625 2.05503 12.5938 2.05503H8.44968ZM2.30494 9.16743C2.594 8.79757 3.05089 8.54892 3.99368 8.41216C4.95823 8.27333 6.26571 8.27126 8.12333 8.27126H12.9202C14.7778 8.27126 16.0842 8.27333 17.0488 8.41216C17.9926 8.54892 18.4495 8.79757 18.7386 9.16847C19.0276 9.53833 19.1582 10.0408 19.0608 10.9898C18.9624 11.9596 18.6474 13.2277 18.1967 15.0304C17.9097 16.1783 17.7098 16.974 17.4839 17.5687C17.2643 18.1426 17.0498 18.4462 16.7815 18.6565C16.5132 18.8658 16.1661 18.9994 15.5559 19.073C14.9239 19.1486 14.1054 19.1497 12.9202 19.1497H8.12333C6.9381 19.1497 6.1186 19.1486 5.48765 19.073C4.87639 19.0005 4.53035 18.8658 4.26202 18.6565C3.99265 18.4462 3.77819 18.1426 3.55958 17.5687C3.33373 16.974 3.13377 16.1783 2.84575 15.0304C2.39611 13.2277 2.08012 11.9596 1.9817 10.9898C1.88535 10.0408 2.01589 9.5373 2.30494 9.16743Z" fill="black"/>
</svg>
