<svg width="31" height="32" viewBox="0 0 31 32" fill="none" xmlns="http://www.w3.org/2000/svg">
<path d="M9.56471 17.2586C9.72149 17.4154 9.80958 17.628 9.80958 17.8498V23.3753C9.80958 23.597 9.72149 23.8097 9.5647 23.9665C9.40792 24.1232 9.19527 24.2113 8.97354 24.2113C8.75181 24.2113 8.53916 24.1232 8.38237 23.9665C8.22558 23.8097 8.1375 23.597 8.1375 23.3753V17.8498C8.1375 17.628 8.22558 17.4154 8.38237 17.2586C8.53916 17.1018 8.75181 17.0137 8.97354 17.0137C9.19527 17.0137 9.40792 17.1018 9.56471 17.2586ZM20.0246 17.0137C20.2463 17.0137 20.459 17.1018 20.6158 17.2586C20.7726 17.4154 20.8606 17.628 20.8606 17.8498V23.3753C20.8606 23.597 20.7726 23.8097 20.6158 23.9665C20.459 24.1232 20.2463 24.2113 20.0246 24.2113C19.8029 24.2113 19.5902 24.1232 19.4334 23.9665C19.2767 23.8097 19.1886 23.597 19.1886 23.3753V17.8498C19.1886 17.628 19.2767 17.4154 19.4334 17.2586C19.5902 17.1018 19.8029 17.0137 20.0246 17.0137ZM15.0902 17.2586C15.247 17.4154 15.3351 17.628 15.3351 17.8498V23.3753C15.3351 23.597 15.247 23.8097 15.0902 23.9665C14.9335 24.1232 14.7208 24.2113 14.4991 24.2113C14.2773 24.2113 14.0647 24.1232 13.9079 23.9665C13.7511 23.8097 13.663 23.597 13.663 23.3753V17.8498C13.663 17.628 13.7511 17.4154 13.9079 17.2586C14.0647 17.1018 14.2773 17.0137 14.4991 17.0137C14.7208 17.0137 14.9335 17.1018 15.0902 17.2586Z" fill="black" stroke="white" stroke-width="0.4"/>
<path d="M7.89634 6.43296L7.89636 6.43295C8.24002 6.29861 8.64488 6.26583 9.55151 6.25623L9.67906 6.25488L9.73407 6.36997C10.0918 7.11833 10.8549 7.63484 11.7362 7.63484H17.2617C18.1459 7.63484 18.909 7.11821 19.2666 6.36997L19.3217 6.25488L19.4492 6.25623C20.3558 6.26583 20.7607 6.29861 21.1044 6.43295L21.1046 6.43303C21.562 6.61242 21.9599 6.91599 22.253 7.31088M7.89634 6.43296L22.0924 7.4301M7.89634 6.43296C7.43864 6.61196 7.04057 6.91619 6.74771 7.31086L7.89634 6.43296ZM22.253 7.31088L22.0924 7.4301M22.253 7.31088C22.253 7.31087 22.253 7.31086 22.253 7.31086L22.0924 7.4301M22.253 7.31088C22.392 7.49806 22.4964 7.71597 22.6158 8.06465C22.7344 8.41128 22.8722 8.90055 23.0728 9.63604M22.0924 7.4301C22.3356 7.75748 22.4779 8.21472 22.8798 9.68866M23.0728 9.63604L23.0728 9.636L22.8798 9.68866M23.0728 9.63604L23.5618 11.4277L23.6412 11.7186L23.3423 11.6785C21.9247 11.4887 20.0892 11.4883 17.7839 11.4883H11.2154C8.91148 11.4883 7.07601 11.4887 5.65842 11.6785L5.35953 11.7186L5.43894 11.4277L5.92789 9.6362M23.0728 9.63604L22.8798 9.68866M22.8798 9.68866L5.92789 9.6362M5.63188 11.4803L5.68897 11.2712C5.66094 11.2747 5.63306 11.2784 5.60533 11.2821L5.63188 11.4803ZM5.63188 11.4803L5.82482 11.533L5.84656 11.4533C5.77398 11.4619 5.70243 11.4709 5.63188 11.4803ZM23.3688 11.4803L23.1759 11.533L23.1542 11.4533C23.2267 11.4619 23.2983 11.4709 23.3688 11.4803ZM23.3688 11.4803L23.3954 11.2821C23.3677 11.2784 23.3398 11.2747 23.3118 11.2712L23.3688 11.4803ZM5.92789 9.6362L6.12089 9.68866L5.92795 9.636L5.92789 9.6362ZM18.5562 3.37459C18.9431 3.61939 19.2525 3.969 19.4485 4.38277L18.5562 3.37459ZM18.5562 3.37459C18.1694 3.1298 17.7209 2.9999 17.2631 3L18.5562 3.37459ZM19.2677 4.46837L19.3215 4.58184L19.447 4.58276C20.3912 4.58967 21.0935 4.63365 21.713 4.87572C22.4628 5.16872 23.115 5.6668 23.5951 6.31303C24.0735 6.95888 24.3041 7.7932 24.6346 9.00766L24.6346 9.00776L25.5021 12.1891L25.5256 12.2751L25.6052 12.3151C26.1222 12.5754 26.5751 12.947 26.9312 13.4033C27.7447 14.4456 27.8988 15.6934 27.7491 17.1764C27.6017 18.616 27.1478 20.4366 26.5719 22.7417C26.5718 22.742 26.5717 22.7423 26.5716 22.7426L26.5347 22.8863L26.5343 22.8877L26.5306 22.9027C26.1679 24.3548 25.8775 25.5173 25.5318 26.4218L25.5317 26.422C25.1727 27.3648 24.7259 28.1151 23.9988 28.681L23.9984 28.6813C23.2726 29.2499 22.437 29.5018 21.4348 29.621L21.4346 29.621C20.4697 29.7367 19.2664 29.737 17.7632 29.737H11.2375C9.73463 29.737 8.53003 29.7367 7.56651 29.6224C6.56507 29.5004 5.72795 29.2498 5.00081 28.6826C4.27481 28.1152 3.82655 27.3646 3.46767 26.422L3.28076 26.4932L3.46767 26.422C3.12719 25.5279 2.83958 24.3818 2.48143 22.9545L2.46532 22.8903L2.46496 22.8888L2.42941 22.7425L2.42909 22.7412L2.42758 22.7352C1.85219 20.4336 1.39746 18.6147 1.25157 17.1749L1.25156 17.1748C1.10056 15.6948 1.25467 14.4456 2.06805 13.4034C2.42457 12.9469 2.87793 12.5753 3.39544 12.3152L3.47512 12.2751L3.49858 12.1891L4.36609 9.00776L4.36618 9.00745C4.69525 7.79294 4.92591 6.95884 5.40552 6.31457L5.4057 6.31432C5.88559 5.66761 6.53783 5.16905 7.2878 4.87569C7.90733 4.63362 8.60829 4.58967 9.554 4.58138L9.67926 4.58028L9.73295 4.4671C9.91286 4.0878 10.1968 3.76737 10.5516 3.54307C10.9065 3.31876 11.3177 3.19979 11.7375 3.2H11.7376H17.2631L17.2632 3.2C17.6831 3.19991 18.0944 3.31906 18.4493 3.5436C18.8042 3.76814 19.088 4.08883 19.2677 4.46837ZM25.6951 12.1365L24.8276 8.95514L27.9481 17.1965C28.1001 15.6908 27.9481 14.3812 27.0889 13.2803C26.7146 12.8006 26.2385 12.41 25.6951 12.1365ZM5.76777 13.3503L5.76755 13.3503C4.48728 13.536 3.81801 13.8806 3.38702 14.4321C2.95594 14.9837 2.7838 15.7167 2.91464 17.0053C3.0476 18.3153 3.47323 20.0218 4.0706 22.4168L4.07164 22.4209L4.0717 22.4212C4.45448 23.9468 4.72418 25.0214 5.03049 25.8279L5.03056 25.8281C5.32928 26.6124 5.63253 27.0539 6.03096 27.365L6.03104 27.3651C6.42805 27.6747 6.92927 27.8622 7.76454 27.9613C8.62047 28.0639 9.72729 28.0649 11.3025 28.0649H17.6983C19.2735 28.0649 20.379 28.0639 21.2363 27.9613L21.2364 27.9612C22.0697 27.8608 22.5725 27.6749 22.9697 27.3651L22.9701 27.3648C23.3668 27.0538 23.67 26.6125 23.97 25.8284L23.9702 25.8279C24.2766 25.0213 24.5462 23.9468 24.9277 22.421C25.527 20.0236 25.9517 18.3161 26.0847 17.0053C26.2169 15.7166 26.0448 14.9851 25.6137 14.4335C25.1827 13.8805 24.5132 13.536 23.2318 13.3503L23.2316 13.3503C21.9279 13.1626 20.1687 13.1604 17.6983 13.1604H11.3025C8.83199 13.1604 7.07146 13.1626 5.76777 13.3503ZM11.7376 4.87208C11.593 4.87208 11.4542 4.92953 11.352 5.0318C11.2497 5.13408 11.1922 5.27279 11.1922 5.41742C11.1922 5.56206 11.2497 5.70077 11.352 5.80304C11.4542 5.90531 11.593 5.96277 11.7376 5.96277H17.2631C17.4078 5.96277 17.5465 5.90531 17.6487 5.80304C17.751 5.70077 17.8085 5.56206 17.8085 5.41742C17.8085 5.27279 17.751 5.13408 17.6487 5.0318C17.5465 4.92953 17.4078 4.87208 17.2631 4.87208H11.7376Z" fill="black" stroke="white" stroke-width="0.4"/>
</svg>
