<svg width="40" height="40" viewBox="0 0 40 40" fill="none" xmlns="http://www.w3.org/2000/svg">
<path opacity="0.3" d="M27.4536 27.4515C35.6853 19.2198 39.0203 9.21148 34.9053 5.09648C30.7903 0.97981 20.782 4.31648 12.5503 12.5465C4.31863 20.7798 0.983634 30.7881 5.09863 34.9031C9.2153 39.0198 19.2236 35.6815 27.4536 27.4515Z" fill="#DB0614"/>
<path opacity="0.3" d="M12.5503 27.4515C4.31863 19.2215 0.983634 9.21148 5.09863 5.09648C9.21363 0.97981 19.222 4.31648 27.4536 12.5465C35.6853 20.7798 39.0203 30.7881 34.9053 34.9031C30.7886 39.0198 20.7803 35.6815 12.5503 27.4515Z" fill="#DB0614"/>
<path d="M24.1693 20.0002C24.1693 21.1052 23.7303 22.165 22.9489 22.9464C22.1675 23.7278 21.1077 24.1668 20.0026 24.1668C18.8975 24.1668 17.8377 23.7278 17.0563 22.9464C16.2749 22.165 15.8359 21.1052 15.8359 20.0002C15.8359 18.8951 16.2749 17.8353 17.0563 17.0539C17.8377 16.2725 18.8975 15.8335 20.0026 15.8335C21.1077 15.8335 22.1675 16.2725 22.9489 17.0539C23.7303 17.8353 24.1693 18.8951 24.1693 20.0002Z" fill="#DB0614"/>
</svg>
