<svg width="40" height="40" viewBox="0 0 40 40" fill="none" xmlns="http://www.w3.org/2000/svg">
<path opacity="0.5" d="M23.3447 6.6665H16.6613C10.3613 6.6665 7.21132 6.6665 5.25299 8.61984C3.90299 9.96317 3.48466 11.8715 3.35299 14.9815C3.32799 15.5982 3.31466 15.9082 3.42966 16.1132C3.54632 16.3182 4.00466 16.5765 4.92466 17.0898C5.44288 17.3787 5.87455 17.8008 6.17506 18.3124C6.47557 18.824 6.63401 19.4065 6.63401 19.9998C6.63401 20.5932 6.47557 21.1757 6.17506 21.6873C5.87455 22.1989 5.44288 22.6209 4.92466 22.9098C4.00466 23.4248 3.54466 23.6815 3.42966 23.8865C3.31466 24.0915 3.32799 24.3998 3.35466 25.0165C3.48466 28.1282 3.90466 30.0365 5.25299 31.3798C7.20966 33.3332 10.3597 33.3332 16.6613 33.3332H23.3447C29.6447 33.3332 32.7947 33.3332 34.753 31.3798C36.103 30.0365 36.5213 28.1282 36.653 25.0182C36.678 24.4015 36.6913 24.0915 36.5763 23.8865C36.4597 23.6815 36.0013 23.4248 35.0813 22.9098C34.5631 22.6209 34.1314 22.1989 33.8309 21.6873C33.5304 21.1757 33.372 20.5932 33.372 19.9998C33.372 19.4065 33.5304 18.824 33.8309 18.3124C34.1314 17.8008 34.5631 17.3787 35.0813 17.0898C36.0013 16.5765 36.4613 16.3182 36.5763 16.1132C36.6913 15.9082 36.678 15.5998 36.6513 14.9815C36.5213 11.8715 36.1013 9.96484 34.753 8.61984C32.7963 6.6665 29.6463 6.6665 23.3447 6.6665Z" fill="#DB0614"/>
<path d="M25.9139 14.1165C26.148 14.3509 26.2795 14.6686 26.2795 14.9998C26.2795 15.3311 26.148 15.6488 25.9139 15.8832L15.8889 25.8832C15.6536 26.118 15.3347 26.25 15.0022 26.25C14.6698 26.25 14.3509 26.118 14.1156 25.8832C13.8815 25.6488 13.75 25.3311 13.75 24.9998C13.75 24.6686 13.8815 24.3509 14.1156 24.1165L24.1406 14.1165C24.3758 13.8821 24.6943 13.7505 25.0264 13.7505C25.3585 13.7505 25.677 13.8821 25.9122 14.1165M24.1922 25.8332C24.4174 25.8432 24.6422 25.8076 24.8532 25.7284C25.0642 25.6491 25.2569 25.528 25.4198 25.3722C25.5827 25.2165 25.7123 25.0293 25.8009 24.8221C25.8895 24.6149 25.9351 24.3919 25.9351 24.1665C25.9351 23.9411 25.8895 23.7181 25.8009 23.5109C25.7123 23.3036 25.5827 23.1165 25.4198 22.9607C25.2569 22.805 25.0642 22.6838 24.8532 22.6046C24.6422 22.5254 24.4174 22.4897 24.1922 22.4998C23.9671 22.4897 23.7422 22.5254 23.5313 22.6046C23.3203 22.6838 23.1275 22.805 22.9647 22.9607C22.8018 23.1165 22.6721 23.3036 22.5836 23.5109C22.495 23.7181 22.4493 23.9411 22.4493 24.1665C22.4493 24.3919 22.495 24.6149 22.5836 24.8221C22.6721 25.0293 22.8018 25.2165 22.9647 25.3722C23.1275 25.528 23.3203 25.6491 23.5313 25.7284C23.7422 25.8076 23.9671 25.8432 24.1922 25.8332ZM15.8372 17.4998C16.0624 17.5099 16.2872 17.4742 16.4982 17.395C16.7092 17.3158 16.9019 17.1947 17.0648 17.0389C17.2277 16.8832 17.3573 16.696 17.4459 16.4888C17.5345 16.2815 17.5801 16.0585 17.5801 15.8332C17.5801 15.6078 17.5345 15.3848 17.4459 15.1775C17.3573 14.9703 17.2277 14.7831 17.0648 14.6274C16.9019 14.4716 16.7092 14.3505 16.4982 14.2713C16.2872 14.1921 16.0624 14.1564 15.8372 14.1665C15.6121 14.1564 15.3872 14.1921 15.1763 14.2713C14.9653 14.3505 14.7725 14.4716 14.6096 14.6274C14.4468 14.7831 14.3171 14.9703 14.2286 15.1775C14.14 15.3848 14.0943 15.6078 14.0943 15.8332C14.0943 16.0585 14.14 16.2815 14.2286 16.4888C14.3171 16.696 14.4468 16.8832 14.6096 17.0389C14.7725 17.1947 14.9653 17.3158 15.1763 17.395C15.3872 17.4742 15.6121 17.5099 15.8372 17.4998Z" fill="#DB0614"/>
</svg>
