<svg width="40" height="40" viewBox="0 0 40 40" fill="none" xmlns="http://www.w3.org/2000/svg">
<path fill-rule="evenodd" clip-rule="evenodd" d="M29.1641 4.5835C29.4956 4.5835 29.8135 4.71519 30.0479 4.94961C30.2824 5.18403 30.4141 5.50198 30.4141 5.8335V9.5835H34.1641C34.4956 9.5835 34.8135 9.71519 35.0479 9.94961C35.2824 10.184 35.4141 10.502 35.4141 10.8335C35.4141 11.165 35.2824 11.483 35.0479 11.7174C34.8135 11.9518 34.4956 12.0835 34.1641 12.0835H30.4141V15.8335C30.4141 16.165 30.2824 16.483 30.0479 16.7174C29.8135 16.9518 29.4956 17.0835 29.1641 17.0835C28.8325 17.0835 28.5146 16.9518 28.2802 16.7174C28.0458 16.483 27.9141 16.165 27.9141 15.8335V12.0835H24.1641C23.8325 12.0835 23.5146 11.9518 23.2802 11.7174C23.0458 11.483 22.9141 11.165 22.9141 10.8335C22.9141 10.502 23.0458 10.184 23.2802 9.94961C23.5146 9.71519 23.8325 9.5835 24.1641 9.5835H27.9141V5.8335C27.9141 5.50198 28.0458 5.18403 28.2802 4.94961C28.5146 4.71519 28.8325 4.5835 29.1641 4.5835Z" fill="#DB0614"/>
<path d="M3.33594 10.8335C3.33594 7.2985 3.33594 5.53016 4.43427 4.43183C5.5326 3.3335 7.30094 3.3335 10.8359 3.3335C14.3709 3.3335 16.1393 3.3335 17.2376 4.43183C18.3359 5.53016 18.3359 7.2985 18.3359 10.8335C18.3359 14.3685 18.3359 16.1368 17.2376 17.2352C16.1393 18.3335 14.3709 18.3335 10.8359 18.3335C7.30094 18.3335 5.5326 18.3335 4.43427 17.2352C3.33594 16.1368 3.33594 14.3685 3.33594 10.8335ZM21.6693 29.1668C21.6693 25.6318 21.6693 23.8635 22.7676 22.7652C23.8659 21.6668 25.6343 21.6668 29.1693 21.6668C32.7043 21.6668 34.4726 21.6668 35.5709 22.7652C36.6693 23.8635 36.6693 25.6318 36.6693 29.1668C36.6693 32.7018 36.6693 34.4702 35.5709 35.5685C34.4726 36.6668 32.7043 36.6668 29.1693 36.6668C25.6343 36.6668 23.8659 36.6668 22.7676 35.5685C21.6693 34.4702 21.6693 32.7018 21.6693 29.1668Z" fill="#DB0614"/>
<path opacity="0.5" d="M3.33594 29.1665C3.33594 25.6315 3.33594 23.8632 4.43427 22.7648C5.5326 21.6665 7.30094 21.6665 10.8359 21.6665C14.3709 21.6665 16.1393 21.6665 17.2376 22.7648C18.3359 23.8632 18.3359 25.6315 18.3359 29.1665C18.3359 32.7015 18.3359 34.4698 17.2376 35.5682C16.1393 36.6665 14.3709 36.6665 10.8359 36.6665C7.30094 36.6665 5.5326 36.6665 4.43427 35.5682C3.33594 34.4698 3.33594 32.7015 3.33594 29.1665Z" fill="#DB0614"/>
</svg>
