<svg width="14" height="14" viewBox="0 0 14 14" fill="none" xmlns="http://www.w3.org/2000/svg">
<path d="M13.3672 6.23661L13.3267 6.27191L10.508 8.73191L10.2822 8.92895L10.3495 9.22095L11.1939 12.8835L11.1942 12.8848C11.2165 12.9805 11.2102 13.0807 11.1759 13.1728C11.1416 13.2649 11.0809 13.3449 11.0014 13.4027C10.9219 13.4606 10.8271 13.4937 10.7289 13.4979C10.6309 13.5022 10.5338 13.4775 10.4497 13.427C10.4496 13.4269 10.4494 13.4267 10.4492 13.4266L7.25603 11.4899L6.99645 11.3324L6.73703 11.4901L3.55115 13.4266C3.5509 13.4268 3.55065 13.4269 3.5504 13.4271C3.46638 13.4775 3.36938 13.5022 3.27145 13.4979C3.17324 13.4937 3.07846 13.4606 2.99896 13.4027C2.91946 13.3449 2.85877 13.2649 2.82448 13.1728C2.79018 13.0807 2.78381 12.9805 2.80615 12.8848L2.80646 12.8834L3.64959 9.22465L3.71682 8.93289L3.49137 8.73588L0.671993 6.27213L0.672 6.27212L0.669538 6.26999C0.594979 6.20569 0.541064 6.1208 0.514556 6.02598C0.488047 5.93115 0.490126 5.83061 0.520529 5.73697C0.550933 5.64332 0.608309 5.56073 0.685463 5.49956C0.762615 5.43839 0.856111 5.40136 0.954226 5.39312L0.955503 5.39301L4.67175 5.07114L4.97286 5.04505L5.08972 4.76632L6.54035 1.30633L6.54067 1.30554C6.57843 1.21505 6.64212 1.13775 6.72372 1.08338C6.80532 1.02901 6.90118 1 6.99923 1C7.09729 1 7.19315 1.02901 7.27475 1.08338C7.35634 1.13775 7.42003 1.21505 7.45779 1.30554L7.45833 1.30682L8.91333 4.76682L9.03034 5.04508L9.33107 5.07113L13.0461 5.39301L13.0474 5.39312C13.1455 5.40136 13.239 5.43839 13.3161 5.49956C13.3933 5.56073 13.4507 5.64332 13.4811 5.73696C13.5115 5.83061 13.5135 5.93115 13.487 6.02598C13.4649 6.10519 13.4236 6.17747 13.3672 6.23661Z" fill="white" stroke="black"/>
</svg>
