<svg width="16" height="17" viewBox="0 0 16 17" fill="none" xmlns="http://www.w3.org/2000/svg">
<path d="M14.3672 7.23661L14.3267 7.27191L11.508 9.73191L11.2822 9.92895L11.3495 10.221L12.1939 13.8835L12.1942 13.8848C12.2165 13.9805 12.2102 14.0807 12.1759 14.1728C12.1416 14.2649 12.0809 14.3449 12.0014 14.4027C11.9219 14.4606 11.8271 14.4937 11.7289 14.4979C11.6309 14.5022 11.5338 14.4775 11.4497 14.427C11.4496 14.4269 11.4494 14.4267 11.4492 14.4266L8.25603 12.4899L7.99645 12.3324L7.73703 12.4901L4.55115 14.4266C4.5509 14.4268 4.55065 14.4269 4.5504 14.4271C4.46638 14.4775 4.36938 14.5022 4.27145 14.4979C4.17324 14.4937 4.07846 14.4606 3.99896 14.4027C3.91946 14.3449 3.85877 14.2649 3.82448 14.1728C3.79018 14.0807 3.78381 13.9805 3.80615 13.8848L3.80646 13.8834L4.64959 10.2247L4.71682 9.93289L4.49137 9.73588L1.67199 7.27213L1.672 7.27212L1.66954 7.26999C1.59498 7.20569 1.54106 7.1208 1.51456 7.02598C1.48805 6.93115 1.49013 6.83061 1.52053 6.73697C1.55093 6.64332 1.60831 6.56073 1.68546 6.49956C1.76262 6.43839 1.85611 6.40136 1.95423 6.39312L1.9555 6.39301L5.67175 6.07114L5.97286 6.04505L6.08972 5.76632L7.54035 2.30633L7.54067 2.30554C7.57843 2.21505 7.64212 2.13775 7.72372 2.08338C7.80532 2.02901 7.90118 2 7.99923 2C8.09729 2 8.19315 2.02901 8.27475 2.08338C8.35634 2.13775 8.42003 2.21505 8.45779 2.30554L8.45833 2.30682L9.91333 5.76682L10.0303 6.04508L10.3311 6.07113L14.0461 6.39301L14.0474 6.39312C14.1455 6.40136 14.239 6.43839 14.3161 6.49956C14.3933 6.56073 14.4507 6.64332 14.4811 6.73696C14.5115 6.83061 14.5135 6.93115 14.487 7.02598C14.4649 7.10519 14.4236 7.17747 14.3672 7.23661Z" fill="black" stroke="black"/>
</svg>
