<svg width="26" height="24" viewBox="0 0 26 24" fill="none" xmlns="http://www.w3.org/2000/svg">
<g clip-path="url(#clip0_68_12358)">
<path d="M18.2025 9.14166C19.7483 10.2461 21.642 10.8959 23.6872 10.8959V6.96237C23.3001 6.96253 22.914 6.92214 22.5353 6.84188V9.93813C20.4903 9.93813 18.5969 9.28839 17.0508 8.18406V16.2113C17.0508 20.227 13.7937 23.4821 9.77627 23.4821C8.27727 23.4821 6.88394 23.0291 5.72656 22.2523C7.04756 23.6023 8.88976 24.4398 10.9278 24.4398C14.9455 24.4398 18.2027 21.1847 18.2027 17.1688V9.14166H18.2025ZM19.6235 5.17322C18.8335 4.31062 18.3147 3.19586 18.2025 1.96342V1.45752H17.111C17.3858 3.02389 18.323 4.3621 19.6235 5.17322ZM8.26758 19.1708C7.82618 18.5925 7.58759 17.8849 7.58871 17.1573C7.58871 15.3207 9.07845 13.8316 10.9164 13.8316C11.2589 13.8314 11.5994 13.884 11.9258 13.9874V9.96593C11.5443 9.91371 11.1593 9.89145 10.7745 9.89964V13.0297C10.4479 12.9263 10.1072 12.8737 9.7646 12.874C7.9267 12.874 6.43705 14.363 6.43705 16.1998C6.43705 17.4986 7.18162 18.6231 8.26758 19.1708Z" fill="#FF004F"/>
<path d="M17.0498 8.18397C18.596 9.28831 20.4893 9.93804 22.5344 9.93804V6.84179C21.3928 6.59873 20.3822 6.00254 19.6224 5.17322C18.3219 4.36202 17.3848 3.02381 17.1101 1.45752H14.243V17.1687C14.2365 19.0003 12.7493 20.4833 10.9153 20.4833C9.83466 20.4833 8.8745 19.9685 8.26647 19.1708C7.18067 18.6231 6.43601 17.4985 6.43601 16.1999C6.43601 14.3632 7.92567 12.8741 9.76357 12.8741C10.1157 12.8741 10.4551 12.9289 10.7735 13.0298V9.89973C6.82655 9.98124 3.65234 13.2045 3.65234 17.1687C3.65234 19.1477 4.44277 20.9416 5.7257 22.2524C6.88307 23.0291 8.27632 23.4822 9.77541 23.4822C13.7929 23.4822 17.0499 20.2269 17.0499 16.2113L17.0498 8.18397Z" fill="black"/>
<path d="M22.5338 6.84179V6.00477C21.5044 6.00627 20.4953 5.71813 19.6218 5.1733C20.395 6.01927 21.413 6.60265 22.5338 6.84196M17.1094 1.45752C17.0832 1.30785 17.0631 1.15719 17.0491 1.0059V0.5H13.0905V16.2113C13.0842 18.0428 11.597 19.5258 9.7629 19.5258C9.24295 19.5266 8.7301 19.405 8.26579 19.171C8.87382 19.9686 9.83399 20.4833 10.9146 20.4833C12.7486 20.4833 14.2359 19.0004 14.2424 17.1688V1.4576L17.1094 1.45752ZM10.773 9.89972V9.0085C10.4423 8.96333 10.1088 8.94072 9.7749 8.9408C5.75697 8.9408 2.5 12.196 2.5 16.2113C2.5 18.7287 3.78003 20.9473 5.72519 22.2524C4.44226 20.9416 3.65183 19.1476 3.65183 17.1687C3.65183 13.2046 6.82596 9.98124 10.773 9.89972Z" fill="#00F2EA"/>
</g>
<defs>
<clipPath id="clip0_68_12358">
<rect width="25" height="24" fill="white" transform="translate(0.5)"/>
</clipPath>
</defs>
</svg>
