<svg width="39" height="32" viewBox="0 0 39 32" fill="none" xmlns="http://www.w3.org/2000/svg">
<path d="M32.4146 26.6249C30.4383 23.2099 27.3358 20.8136 23.7308 19.7974C25.4835 18.9065 26.885 17.4512 27.7095 15.6663C28.5339 13.8813 28.7331 11.8707 28.275 9.95871C27.8169 8.04669 26.7283 6.34467 25.1845 5.12708C23.6408 3.90949 21.7319 3.24731 19.7658 3.24731C17.7997 3.24731 15.8909 3.90949 14.3471 5.12708C12.8034 6.34467 11.7147 8.04669 11.2566 9.95871C10.7985 11.8707 10.9978 13.8813 11.8222 15.6663C12.6466 17.4512 14.0481 18.9065 15.8008 19.7974C12.1958 20.8124 9.09331 23.2086 7.11706 26.6249C7.0628 26.7103 7.02636 26.8057 7.00994 26.9055C6.99353 27.0053 6.99747 27.1074 7.02153 27.2057C7.0456 27.3039 7.08929 27.3963 7.14998 27.4772C7.21066 27.5581 7.28709 27.626 7.37467 27.6766C7.46224 27.7272 7.55915 27.7596 7.65956 27.7718C7.75998 27.784 7.86182 27.7757 7.95897 27.7476C8.05611 27.7194 8.14655 27.6718 8.22485 27.6078C8.30314 27.5437 8.36768 27.4645 8.41456 27.3749C10.8158 23.2261 15.0583 20.7499 19.7658 20.7499C24.4733 20.7499 28.7158 23.2261 31.1171 27.3749C31.1639 27.4645 31.2285 27.5437 31.3068 27.6078C31.3851 27.6718 31.4755 27.7194 31.5727 27.7476C31.6698 27.7757 31.7717 27.784 31.8721 27.7718C31.9725 27.7596 32.0694 27.7272 32.157 27.6766C32.2445 27.626 32.321 27.5581 32.3817 27.4772C32.4423 27.3963 32.486 27.3039 32.5101 27.2057C32.5342 27.1074 32.5381 27.0053 32.5217 26.9055C32.5053 26.8057 32.4688 26.7103 32.4146 26.6249ZM12.5158 11.9999C12.5158 10.566 12.941 9.16427 13.7377 7.97201C14.5343 6.77976 15.6666 5.8505 16.9914 5.30177C18.3161 4.75303 19.7739 4.60946 21.1802 4.8892C22.5866 5.16895 23.8784 5.85944 24.8923 6.87337C25.9063 7.8873 26.5968 9.17913 26.8765 10.5855C27.1562 11.9919 27.0127 13.4496 26.4639 14.7744C25.9152 16.0991 24.986 17.2314 23.7937 18.0281C22.6014 18.8247 21.1997 19.2499 19.7658 19.2499C17.8437 19.2476 16.001 18.483 14.6418 17.1239C13.2827 15.7647 12.5181 13.922 12.5158 11.9999Z" fill="black"/>
</svg>
