<svg width="24" height="24" viewBox="0 0 24 24" fill="none" xmlns="http://www.w3.org/2000/svg">
<path fill-rule="evenodd" clip-rule="evenodd" d="M16.6761 2.62798C13.53 1.92471 10.2673 1.92471 7.12113 2.62798L6.78213 2.70298C5.89714 2.90085 5.08434 3.34017 4.434 3.97215C3.78366 4.60413 3.32124 5.40403 3.09813 6.28298C2.30062 9.42551 2.30062 12.7175 3.09813 15.86C3.3109 16.6982 3.74153 17.4653 4.34636 18.0835C4.95119 18.7017 5.70871 19.149 6.54213 19.38L7.00713 22.156C7.02197 22.2441 7.06017 22.3267 7.11776 22.3951C7.17535 22.4634 7.25021 22.5151 7.33455 22.5447C7.4189 22.5743 7.50963 22.5808 7.59732 22.5634C7.68501 22.5461 7.76644 22.5055 7.83313 22.446L10.5641 20.003C12.6142 20.1281 14.6717 19.9641 16.6761 19.516L17.0161 19.441C17.9011 19.2431 18.7139 18.8038 19.3643 18.1718C20.0146 17.5398 20.477 16.7399 20.7001 15.861C21.4975 12.7184 21.4975 9.42652 20.7001 6.28398C20.4769 5.4049 20.0144 4.60492 19.3638 3.97292C18.7133 3.34093 17.9003 2.90168 17.0151 2.70398L16.6761 2.62798ZM7.96513 6.20198C7.77927 6.17493 7.58976 6.21234 7.42813 6.30798H7.41413C7.03913 6.52798 6.70113 6.80498 6.41313 7.13098C6.17313 7.40798 6.04313 7.68798 6.00913 7.95798C5.98913 8.11798 6.00313 8.27998 6.05013 8.43298L6.06813 8.44298C6.33813 9.23598 6.69013 9.99898 7.12013 10.717C7.67458 11.7255 8.35688 12.6582 9.15013 13.492L9.17413 13.526L9.21213 13.554L9.23513 13.581L9.26313 13.605C10.0999 14.4006 11.0347 15.0862 12.0451 15.645C13.2001 16.274 13.9011 16.571 14.3221 16.695V16.701C14.4451 16.739 14.5571 16.756 14.6701 16.756C15.0287 16.7295 15.368 16.5837 15.6341 16.342C15.9591 16.054 16.2341 15.715 16.4481 15.338V15.331C16.6491 14.951 16.5811 14.593 16.2911 14.35C15.7086 13.841 15.0788 13.389 14.4101 13C13.9621 12.757 13.5071 12.904 13.3231 13.15L12.9301 13.646C12.7281 13.892 12.3621 13.858 12.3621 13.858L12.3521 13.864C9.62113 13.167 8.89213 10.402 8.89213 10.402C8.89213 10.402 8.85813 10.026 9.11113 9.83398L9.60313 9.43798C9.83913 9.24598 10.0031 8.79198 9.75013 8.34398C9.36373 7.67475 8.91257 7.04506 8.40313 6.46398C8.29202 6.32723 8.13619 6.23409 7.96313 6.20098L7.96513 6.20198ZM12.5791 4.99998C12.4465 4.99998 12.3193 5.05266 12.2256 5.14643C12.1318 5.2402 12.0791 5.36738 12.0791 5.49998C12.0791 5.63259 12.1318 5.75977 12.2256 5.85354C12.3193 5.94731 12.4465 5.99998 12.5791 5.99998C13.8441 5.99998 14.8941 6.41298 15.7251 7.20498C16.1521 7.63798 16.4851 8.15098 16.7031 8.71298C16.9221 9.27598 17.0221 9.87698 16.9961 10.479C16.9934 10.5446 17.0036 10.6102 17.0262 10.6719C17.0487 10.7336 17.0832 10.7903 17.1277 10.8387C17.2176 10.9364 17.3425 10.9944 17.4751 11C17.6077 11.0056 17.7371 10.9582 17.8348 10.8684C17.9325 10.7786 17.9906 10.6536 17.9961 10.521C18.0271 9.78047 17.9042 9.04157 17.6351 8.35098C17.3649 7.65712 16.9551 7.0261 16.4311 6.49698L16.4211 6.48698C15.3901 5.50198 14.0851 4.99998 12.5791 4.99998ZM12.5451 6.64398C12.4125 6.64398 12.2853 6.69666 12.1916 6.79043C12.0978 6.8842 12.0451 7.01138 12.0451 7.14398C12.0451 7.27659 12.0978 7.40377 12.1916 7.49754C12.2853 7.59131 12.4125 7.64398 12.5451 7.64398H12.5621C13.4741 7.70898 14.1381 8.01298 14.6031 8.51198C15.0801 9.02598 15.3271 9.66498 15.3081 10.455C15.3051 10.5876 15.3548 10.716 15.4464 10.8119C15.5381 10.9078 15.664 10.9634 15.7966 10.9665C15.9292 10.9695 16.0576 10.9198 16.1535 10.8282C16.2495 10.7366 16.3051 10.6106 16.3081 10.478C16.3321 9.44098 15.9981 8.54598 15.3361 7.83198V7.82998C14.6591 7.10398 13.7301 6.71998 12.6121 6.64498L12.5951 6.64298L12.5451 6.64398ZM12.5261 8.31898C12.4592 8.31308 12.3918 8.32072 12.3279 8.34145C12.264 8.36217 12.2049 8.39556 12.1542 8.43962C12.1035 8.48368 12.0622 8.53751 12.0328 8.59788C12.0033 8.65826 11.9864 8.72395 11.9829 8.79103C11.9794 8.85812 11.9894 8.92521 12.0124 8.98832C12.0354 9.05143 12.0709 9.10926 12.1168 9.15835C12.1626 9.20744 12.2179 9.24679 12.2793 9.27404C12.3407 9.3013 12.407 9.3159 12.4741 9.31698C12.8921 9.33898 13.1591 9.46498 13.3271 9.63398C13.4961 9.80398 13.6221 10.077 13.6451 10.504C13.6464 10.5711 13.6611 10.6372 13.6885 10.6985C13.7158 10.7598 13.7553 10.815 13.8044 10.8607C13.8535 10.9064 13.9113 10.9418 13.9744 10.9647C14.0375 10.9876 14.1045 10.9975 14.1716 10.994C14.2386 10.9904 14.3042 10.9734 14.3645 10.944C14.4248 10.9145 14.4785 10.8732 14.5226 10.8225C14.5666 10.7719 14.5999 10.7129 14.6206 10.649C14.6413 10.5852 14.649 10.5178 14.6431 10.451C14.6111 9.85098 14.4231 9.32098 14.0381 8.93098C13.6511 8.54098 13.1241 8.35098 12.5261 8.31898Z" fill="#9138D7"/>
</svg>
