<svg width="67" height="67" viewBox="0 0 67 67" fill="none" xmlns="http://www.w3.org/2000/svg">
<g filter="url(#filter0_d_68_3865)">
<rect x="6" y="2" width="55" height="55" rx="8" fill="white" shape-rendering="crispEdges"/>
<g clip-path="url(#clip0_68_3865)">
<path fill-rule="evenodd" clip-rule="evenodd" d="M41.2767 21.93C41.5238 21.826 41.7943 21.7901 42.0599 21.8261C42.3256 21.8621 42.5768 21.9687 42.7873 22.1347C42.9979 22.3007 43.1601 22.5201 43.257 22.7701C43.354 23.0201 43.3822 23.2915 43.3387 23.556L41.0707 37.313C40.8507 38.64 39.3947 39.401 38.1777 38.74C37.1597 38.187 35.6477 37.335 34.2877 36.446C33.6077 36.001 31.5247 34.576 31.7807 33.562C32.0007 32.695 35.5007 29.437 37.5007 27.5C38.2857 26.739 37.9277 26.3 37.0007 27C34.6987 28.738 31.0027 31.381 29.7807 32.125C28.7027 32.781 28.1407 32.893 27.4687 32.781C26.2427 32.577 25.1057 32.261 24.1777 31.876C22.9237 31.356 22.9847 29.632 24.1767 29.13L41.2767 21.93Z" fill="#609CF5"/>
</g>
</g>
<defs>
<filter id="filter0_d_68_3865" x="0" y="0" width="67" height="67" filterUnits="userSpaceOnUse" color-interpolation-filters="sRGB">
<feFlood flood-opacity="0" result="BackgroundImageFix"/>
<feColorMatrix in="SourceAlpha" type="matrix" values="0 0 0 0 0 0 0 0 0 0 0 0 0 0 0 0 0 0 127 0" result="hardAlpha"/>
<feOffset dy="4"/>
<feGaussianBlur stdDeviation="3"/>
<feComposite in2="hardAlpha" operator="out"/>
<feColorMatrix type="matrix" values="0 0 0 0 0 0 0 0 0 0 0 0 0 0 0 0 0 0 0.16 0"/>
<feBlend mode="normal" in2="BackgroundImageFix" result="effect1_dropShadow_68_3865"/>
<feBlend mode="normal" in="SourceGraphic" in2="effect1_dropShadow_68_3865" result="shape"/>
</filter>
<clipPath id="clip0_68_3865">
<rect width="24" height="24" fill="white" transform="translate(21.5 17.5)"/>
</clipPath>
</defs>
</svg>
