<svg width="67" height="67" viewBox="0 0 67 67" fill="none" xmlns="http://www.w3.org/2000/svg">
<g filter="url(#filter0_d_68_3853)">
<rect x="6" y="2" width="55" height="55" rx="8" fill="white" shape-rendering="crispEdges"/>
<g clip-path="url(#clip0_68_3853)">
<path d="M38.7006 26.6412C40.2463 27.7456 42.14 28.3954 44.1852 28.3954V24.4619C43.7981 24.462 43.4121 24.4217 43.0334 24.3414V27.4376C40.9883 27.4376 39.0949 26.7879 37.5488 25.6836V33.7108C37.5488 37.7265 34.2918 40.9816 30.2743 40.9816C28.7753 40.9816 27.382 40.5286 26.2246 39.7518C27.5456 41.1018 29.3878 41.9393 31.4258 41.9393C35.4436 41.9393 38.7007 38.6842 38.7007 34.6683V26.6412H38.7006ZM40.1215 22.6727C39.3315 21.8101 38.8128 20.6954 38.7006 19.4629V18.957H37.6091C37.8838 20.5234 38.821 21.8616 40.1215 22.6727ZM28.7656 36.6704C28.3242 36.092 28.0856 35.3844 28.0868 34.6568C28.0868 32.8203 29.5765 31.3311 31.4145 31.3311C31.757 31.3309 32.0974 31.3835 32.4239 31.4869V27.4654C32.0424 27.4132 31.6574 27.391 31.2726 27.3992V30.5293C30.9459 30.4258 30.6053 30.3732 30.2627 30.3735C28.4247 30.3735 26.9351 31.8625 26.9351 33.6993C26.9351 34.9981 27.6797 36.1226 28.7656 36.6704Z" fill="#FF004F"/>
<path d="M37.5498 25.6835C39.096 26.7878 40.9893 27.4376 43.0344 27.4376V24.3413C41.8928 24.0982 40.8822 23.5021 40.1224 22.6727C38.8219 21.8615 37.8848 20.5233 37.6101 18.957H34.743V34.6682C34.7365 36.4998 33.2493 37.9828 31.4153 37.9828C30.3347 37.9828 29.3745 37.468 28.7665 36.6703C27.6807 36.1226 26.936 34.9981 26.936 33.6994C26.936 31.8627 28.4257 30.3736 30.2636 30.3736C30.6157 30.3736 30.9551 30.4284 31.2735 30.5293V27.3992C27.3266 27.4808 24.1523 30.704 24.1523 34.6683C24.1523 36.6472 24.9428 38.4411 26.2257 39.752C27.3831 40.5286 28.7763 40.9817 30.2754 40.9817C34.2929 40.9817 37.5499 37.7264 37.5499 33.7108L37.5498 25.6835Z" fill="black"/>
<path d="M43.0338 24.3418V23.5048C42.0044 23.5063 40.9953 23.2181 40.1218 22.6733C40.895 23.5193 41.913 24.1026 43.0338 24.342M37.6094 18.9575C37.5832 18.8079 37.5631 18.6572 37.5491 18.5059V18H33.5905V33.7113C33.5842 35.5428 32.097 37.0258 30.2629 37.0258C29.7429 37.0266 29.2301 36.905 28.7658 36.671C29.3738 37.4686 30.334 37.9833 31.4146 37.9833C33.2486 37.9833 34.7359 36.5004 34.7424 34.6688V18.9576L37.6094 18.9575ZM31.273 27.3997V26.5085C30.9423 26.4633 30.6088 26.4407 30.2749 26.4408C26.257 26.4408 23 29.696 23 33.7113C23 36.2287 24.28 38.4473 26.2252 39.7524C24.9423 38.4416 24.1518 36.6476 24.1518 34.6687C24.1518 30.7046 27.326 27.4812 31.273 27.3997Z" fill="#00F2EA"/>
</g>
</g>
<defs>
<filter id="filter0_d_68_3853" x="0" y="0" width="67" height="67" filterUnits="userSpaceOnUse" color-interpolation-filters="sRGB">
<feFlood flood-opacity="0" result="BackgroundImageFix"/>
<feColorMatrix in="SourceAlpha" type="matrix" values="0 0 0 0 0 0 0 0 0 0 0 0 0 0 0 0 0 0 127 0" result="hardAlpha"/>
<feOffset dy="4"/>
<feGaussianBlur stdDeviation="3"/>
<feComposite in2="hardAlpha" operator="out"/>
<feColorMatrix type="matrix" values="0 0 0 0 0 0 0 0 0 0 0 0 0 0 0 0 0 0 0.16 0"/>
<feBlend mode="normal" in2="BackgroundImageFix" result="effect1_dropShadow_68_3853"/>
<feBlend mode="normal" in="SourceGraphic" in2="effect1_dropShadow_68_3853" result="shape"/>
</filter>
<clipPath id="clip0_68_3853">
<rect width="25" height="24" fill="white" transform="translate(21 17.5)"/>
</clipPath>
</defs>
</svg>
