<svg width="67" height="67" viewBox="0 0 67 67" fill="none" xmlns="http://www.w3.org/2000/svg">
<g filter="url(#filter0_d_68_3859)">
<rect x="6" y="2" width="55" height="55" rx="8" fill="white" shape-rendering="crispEdges"/>
<g clip-path="url(#clip0_68_3859)">
<path d="M39.875 17.5H27.125C24.0184 17.5 21.5 20.0184 21.5 23.125V35.875C21.5 38.9816 24.0184 41.5 27.125 41.5H39.875C42.9816 41.5 45.5 38.9816 45.5 35.875V23.125C45.5 20.0184 42.9816 17.5 39.875 17.5Z" fill="url(#paint0_radial_68_3859)"/>
<path d="M39.875 17.5H27.125C24.0184 17.5 21.5 20.0184 21.5 23.125V35.875C21.5 38.9816 24.0184 41.5 27.125 41.5H39.875C42.9816 41.5 45.5 38.9816 45.5 35.875V23.125C45.5 20.0184 42.9816 17.5 39.875 17.5Z" fill="url(#paint1_radial_68_3859)"/>
<path d="M33.5008 20.125C30.9548 20.125 30.6352 20.1362 29.6353 20.1816C28.6372 20.2274 27.9559 20.3853 27.3598 20.6172C26.7432 20.8566 26.2201 21.177 25.6991 21.6982C25.1775 22.2194 24.8572 22.7424 24.617 23.3588C24.3845 23.9551 24.2263 24.6366 24.1814 25.6342C24.1367 26.6342 24.125 26.9539 24.125 29.5001C24.125 32.0463 24.1363 32.3648 24.1816 33.3647C24.2276 34.3628 24.3855 35.0441 24.6172 35.6402C24.8568 36.2568 25.1772 36.7799 25.6984 37.3009C26.2194 37.8225 26.7424 38.1436 27.3586 38.383C27.9552 38.6148 28.6365 38.7728 29.6344 38.8186C30.6344 38.864 30.9538 38.8752 33.4997 38.8752C36.0461 38.8752 36.3646 38.864 37.3646 38.8186C38.3626 38.7728 39.0447 38.6148 39.6412 38.383C40.2576 38.1436 40.7799 37.8225 41.3007 37.3009C41.8223 36.7799 42.1425 36.2568 42.3828 35.6404C42.6133 35.0441 42.7715 34.3626 42.8184 33.3649C42.8633 32.365 42.875 32.0463 42.875 29.5001C42.875 26.9539 42.8633 26.6344 42.8184 25.6344C42.7715 24.6363 42.6133 23.9552 42.3828 23.3591C42.1425 22.7424 41.8223 22.2194 41.3007 21.6982C40.7793 21.1768 40.2578 20.8564 39.6406 20.6173C39.043 20.3853 38.3613 20.2273 37.3632 20.1816C36.3632 20.1362 36.0448 20.125 33.4979 20.125H33.5008ZM32.6598 21.8145C32.9095 21.8141 33.188 21.8145 33.5008 21.8145C36.0041 21.8145 36.3007 21.8235 37.2892 21.8684C38.2032 21.9102 38.6994 22.0629 39.0298 22.1913C39.4674 22.3611 39.7793 22.5643 40.1072 22.8925C40.4353 23.2206 40.6384 23.5331 40.8088 23.9706C40.9371 24.3006 41.09 24.7968 41.1316 25.7108C41.1765 26.6991 41.1863 26.9959 41.1863 29.4979C41.1863 31.9999 41.1765 32.2968 41.1316 33.2851C41.0898 34.1991 40.9371 34.6952 40.8088 35.0253C40.6389 35.4629 40.4353 35.7744 40.1072 36.1023C39.7791 36.4305 39.4676 36.6335 39.0298 36.8035C38.6997 36.9324 38.2032 37.0848 37.2892 37.1266C36.3009 37.1715 36.0041 37.1812 33.5008 37.1812C30.9975 37.1812 30.7008 37.1715 29.7126 37.1266C28.7985 37.0844 28.3024 36.9317 27.9717 36.8033C27.5342 36.6333 27.2217 36.4303 26.8935 36.1022C26.5654 35.774 26.3623 35.4623 26.192 35.0246C26.0637 34.6945 25.9108 34.1984 25.8691 33.2843C25.8242 32.296 25.8152 31.9992 25.8152 29.4956C25.8152 26.9921 25.8242 26.6968 25.8691 25.7085C25.9109 24.7944 26.0637 24.2983 26.192 23.9678C26.362 23.5303 26.5654 23.2178 26.8936 22.8897C27.2218 22.5616 27.5342 22.3584 27.9717 22.1882C28.3022 22.0592 28.7985 21.9069 29.7126 21.8649C30.5774 21.8258 30.9126 21.8141 32.6598 21.8121V21.8145ZM38.5052 23.3711C37.8841 23.3711 37.3802 23.8745 37.3802 24.4957C37.3802 25.1168 37.8841 25.6207 38.5052 25.6207C39.1263 25.6207 39.6302 25.1168 39.6302 24.4957C39.6302 23.8746 39.1263 23.3707 38.5052 23.3707V23.3711ZM33.5008 24.6856C30.8421 24.6856 28.6864 26.8413 28.6864 29.5001C28.6864 32.1589 30.8421 34.3136 33.5008 34.3136C36.1597 34.3136 38.3146 32.1589 38.3146 29.5001C38.3146 26.8413 36.1595 24.6856 33.5007 24.6856H33.5008ZM33.5008 26.375C35.2267 26.375 36.6259 27.7741 36.6259 29.5001C36.6259 31.2259 35.2267 32.6252 33.5008 32.6252C31.7749 32.6252 30.3759 31.2259 30.3759 29.5001C30.3759 27.7741 31.7749 26.375 33.5008 26.375Z" fill="white"/>
</g>
</g>
<defs>
<filter id="filter0_d_68_3859" x="0" y="0" width="67" height="67" filterUnits="userSpaceOnUse" color-interpolation-filters="sRGB">
<feFlood flood-opacity="0" result="BackgroundImageFix"/>
<feColorMatrix in="SourceAlpha" type="matrix" values="0 0 0 0 0 0 0 0 0 0 0 0 0 0 0 0 0 0 127 0" result="hardAlpha"/>
<feOffset dy="4"/>
<feGaussianBlur stdDeviation="3"/>
<feComposite in2="hardAlpha" operator="out"/>
<feColorMatrix type="matrix" values="0 0 0 0 0 0 0 0 0 0 0 0 0 0 0 0 0 0 0.16 0"/>
<feBlend mode="normal" in2="BackgroundImageFix" result="effect1_dropShadow_68_3859"/>
<feBlend mode="normal" in="SourceGraphic" in2="effect1_dropShadow_68_3859" result="shape"/>
</filter>
<radialGradient id="paint0_radial_68_3859" cx="0" cy="0" r="1" gradientUnits="userSpaceOnUse" gradientTransform="translate(27.875 43.3485) rotate(-90) scale(23.7858 22.1227)">
<stop stop-color="#FFDD55"/>
<stop offset="0.1" stop-color="#FFDD55"/>
<stop offset="0.5" stop-color="#FF543E"/>
<stop offset="1" stop-color="#C837AB"/>
</radialGradient>
<radialGradient id="paint1_radial_68_3859" cx="0" cy="0" r="1" gradientUnits="userSpaceOnUse" gradientTransform="translate(17.4799 19.2288) rotate(78.681) scale(10.6324 43.827)">
<stop stop-color="#3771C8"/>
<stop offset="0.128" stop-color="#3771C8"/>
<stop offset="1" stop-color="#6600FF" stop-opacity="0"/>
</radialGradient>
<clipPath id="clip0_68_3859">
<rect width="24" height="24" fill="white" transform="translate(21.5 17.5)"/>
</clipPath>
</defs>
</svg>
