<svg width="24" height="24" viewBox="0 0 24 24" fill="none" xmlns="http://www.w3.org/2000/svg">
<path d="M19.6677 4.04488C19.1469 3.56505 17.039 2.03536 12.3392 2.01486C12.3392 2.01486 6.79865 1.68267 4.10016 4.15971C2.59918 5.66069 2.07014 7.86295 2.01273 10.5901C1.95531 13.3173 1.8856 18.4272 6.81095 19.8134H6.81506L6.81095 21.9295C6.81095 21.9295 6.77815 22.7867 7.34409 22.9589C8.02486 23.1722 8.42677 22.5201 9.07883 21.8188C9.43562 21.4333 9.92775 20.8674 10.3009 20.4368C13.672 20.7197 16.2598 20.0718 16.555 19.9774C17.2358 19.756 21.0867 19.2639 21.7101 14.154C22.358 8.88001 21.3984 5.54996 19.6677 4.04488ZM20.2378 13.7685C19.7087 18.0335 16.5879 18.3042 16.0137 18.4888C15.7676 18.5667 13.4916 19.1326 10.6331 18.9481C10.6331 18.9481 8.50059 21.5194 7.83622 22.1879C7.61886 22.4053 7.381 22.3848 7.3851 21.9541C7.3851 21.6712 7.4015 18.4396 7.4015 18.4396C7.3974 18.4396 7.3974 18.4396 7.4015 18.4396C3.22664 17.2831 3.4727 12.9318 3.51781 10.6558C3.56292 8.37968 3.99353 6.51371 5.26486 5.25879C7.54914 3.18776 12.253 3.49534 12.253 3.49534C16.227 3.51174 18.1298 4.70925 18.5728 5.11115C20.0368 6.36607 20.7832 9.36803 20.2378 13.7685ZM14.5373 10.4548C14.5537 10.8075 14.0247 10.8321 14.0083 10.4794C13.9632 9.57719 13.5408 9.13838 12.6714 9.08916C12.3187 9.06866 12.3515 8.53962 12.7001 8.56013C13.8443 8.62164 14.4799 9.27781 14.5373 10.4548ZM15.3698 10.9182C15.4109 9.17939 14.3241 7.81784 12.2612 7.6661C11.9127 7.64149 11.9496 7.11246 12.2982 7.13707C14.6768 7.30931 15.944 8.94563 15.8989 10.9305C15.8948 11.2832 15.3616 11.2668 15.3698 10.9182ZM17.2973 11.4678C17.3014 11.8205 16.7683 11.8246 16.7683 11.4719C16.7437 8.12952 14.5168 6.30865 11.8142 6.28815C11.4656 6.28405 11.4656 5.75911 11.8142 5.75911C14.8367 5.77962 17.2686 7.86705 17.2973 11.4678ZM16.8339 15.4909V15.4991C16.391 16.2783 15.5626 17.1395 14.7096 16.8647L14.7014 16.8524C13.836 16.6105 11.7978 15.5606 10.5101 14.5354C9.84573 14.0104 9.23877 13.3912 8.77126 12.7965C8.34885 12.2675 7.92234 11.64 7.50813 10.8854C6.63461 9.30652 6.44186 8.60114 6.44186 8.60114C6.16709 7.74812 7.02421 6.91971 7.80751 6.4768H7.81571C8.19301 6.27995 8.5539 6.34556 8.79586 6.63674C8.79586 6.63674 9.30439 7.24369 9.52175 7.54307C9.7268 7.82194 10.0016 8.26896 10.1451 8.51912C10.3953 8.96613 10.2394 9.42135 9.99337 9.61L9.50124 10.0037C9.25108 10.2046 9.28389 10.5778 9.28389 10.5778C9.28389 10.5778 10.0139 13.3378 12.7411 14.035C12.7411 14.035 13.1143 14.0678 13.3152 13.8177L13.7089 13.3255C13.8976 13.0795 14.3528 12.9236 14.7998 13.1738C15.4026 13.5142 16.1695 14.0432 16.6781 14.5231C16.9651 14.7568 17.0308 15.1136 16.8339 15.4909Z" fill="white"/>
</svg>
